<?xml version="1.0" encoding="UTF-8"?>
<!DOCTYPE svg PUBLIC "-//W3C//DTD SVG 1.1//EN" "http://www.w3.org/Graphics/SVG/1.1/DTD/svg11.dtd">
<svg version="1.1" xmlns="http://www.w3.org/2000/svg" xmlns:xlink="http://www.w3.org/1999/xlink" x="0" y="0" width="1920" height="1080" viewBox="0, 0, 1920, 1080">
  <g id="zones" transform="translate(0, 0)">
    <path d="M703.139,588.396 L703.139,423.479 L701.053,423.479 L701.053,405.542 L697.611,405.542 L697.611,408.401 L236.598,408.401 L236.892,565.923 L236.892,565.923 L236.892,587.154 L236.892,587.154 L236.892,789.702 L693.172,789.702 L696.635,789.702 L696.635,774.674 L696.635,748.822 L696.635,652.914 L707.873,652.914 L707.873,588.396 z" fill="#9BDAED"/>
    <path d="M914.045,115.653 L914.045,116.044 L695.327,116.044 L695.327,405.542 L695.327,405.542 L695.327,409.42 L703.099,409.42 L703.099,589.693 L1329.067,589.171 L1329.067,588.712 L1359.684,588.712 L1359.684,594.334 L1658.189,594.334 L1658.189,568.808 L1684.206,568.808 L1708.582,115.24 z" fill="#C9E3B5"/>
    <path d="M1652.987,404.871 L1652.987,394.969 L1473.296,393.967 L1473.296,414.753 L1325.798,414.753 L1325.798,589.086 L701.296,589.086 L701.296,590.626 L696.254,651.842 L696.254,791.932 L984.386,791.932 L1659.663,793.447 L1651.964,565.923 L1675.868,565.923 L1685.653,405.206 z" fill="#F29D9A"/>
    <path d="M1188.694,414.224 L1301.112,414.224 L1301.112,588.712 L1188.694,588.712 z" fill="#C0BDBD"/>
    <path d="M696.646,405.198 L636.467,405.198 L636.467,408.403 L580.299,408.403 L517.725,408.403 L517.725,591.118 L580.299,591.118 L580.299,589.053 L649.528,589.053 L649.528,414.562 L696.646,414.562 z" fill="#C0BDBD"/>
    <path d="M854.617,559.175 L880.939,559.175 L880.939,586.919 L854.617,586.919 z" fill="#FFFFFF"/>
    <path d="M944.24,417.567 L944.24,344.878 L905.541,344.901 L903.994,410.664 L870.639,410.664 L870.639,587.764 L916.038,587.764 L916.038,633.126 L942.97,633.126 L943.326,585.723 L1007.953,585.723 L1007.953,417.59 z" fill="#FFFFFF"/>
    <path d="M700.686,410.405 L796.854,410.405 L796.854,646.258 L700.686,646.258 z" fill="#FFFFFF"/>
    <path d="M236.598,408.401 L697.611,408.401 L697.611,113.289 L194.141,113.289 L194.141,565.923 L236.598,565.923 z" fill="#C0BDBD"/>
    <path d="M875.242,655.606 L876.497,591.875 L693.667,591.875 L693.667,650.301 L694.092,650.301 L694.092,695.778 L693.667,695.778 L693.667,788.941 L875.242,788.941 L875.242,789.448 L875.242,789.448 z" fill="#FFFFFF"/>
  </g>
</svg>
