<?xml version="1.0" encoding="UTF-8"?>
<!DOCTYPE svg PUBLIC "-//W3C//DTD SVG 1.1//EN" "http://www.w3.org/Graphics/SVG/1.1/DTD/svg11.dtd">
<svg version="1.1" xmlns="http://www.w3.org/2000/svg" xmlns:xlink="http://www.w3.org/1999/xlink" x="0" y="0" width="1920" height="1080" viewBox="0, 0, 1920, 1080">
  <g id="workspaces" transform="translate(0, 0)">
    <path d="M799.827,592.007 L911.401,592.007 L911.401,658.237 L799.827,658.237 z" fill="#FFFFFF" id="1-Conference_18D_41"/>
    <path d="M943.625,591.732 L980.713,591.732 L980.713,658.237 L943.625,658.237 z" fill="#FFFFFF" id="2-Huddle_18D_40"/>
    <path d="M983.17,591.732 L1051.597,591.732 L1051.597,658.237 L983.17,658.237 z" fill="#FFFFFF" id="3-Huddle_18D_39"/>
    <path d="M1055.441,591.732 L1211.509,591.732 L1211.509,658.237 L1055.441,658.237 z" fill="#FFFFFF" id="4-Conference_18D_38"/>
    <path d="M1157.564,692.241 L1221.083,692.241 L1221.083,756.957 L1157.564,756.957 z" fill="#FFFFFF" id="5-Huddle_18D_37"/>
    <path d="M1231.434,816.946 L1126.832,860.651 L1184.794,1002.443 L1290.274,957.411 z" fill="#FFFFFF" id="6-Conference_18D_36"/>
    <path d="M1224.378,692.241 L1296.184,692.241 L1296.184,756.957 L1224.378,756.957 z" fill="#FFFFFF" id="7-Huddle_18D_35"/>
    <path d="M1299.219,692.241 L1335.698,692.241 L1335.698,756.957 L1299.219,756.957 z" fill="#FFFFFF" id="8-Huddle_18D_34"/>
    <path d="M1234.906,815.165 L1272.342,799.852 L1295.271,853.776 L1257.888,870.029 z" fill="#FFFFFF" id="9-Huddle_18D_33"/>
    <path d="M1258.346,873.218 L1295.781,858.469 L1317.862,911.013 L1280.479,926.666 z" fill="#FFFFFF" id="10-Huddle_18D_32"/>
    <path d="M1421.79,607.959 L1488.416,607.959 L1488.416,646.12 L1421.79,646.12 z" fill="#FFFFFF" id="11-Huddle_18D_30"/>
    <path d="M1421.79,529.336 L1489.154,529.336 L1489.154,604.813 L1421.79,604.813 z" fill="#FFFFFF" id="12-Huddle_18D_29"/>
    <path d="M1421.79,460.816 L1489.154,460.816 L1489.154,526.334 L1421.79,526.334 z" fill="#FFFFFF" id="13-Huddle_18D_28"/>
    <path d="M1421.79,399.673 L1489.154,399.673 L1489.154,456.596 L1421.79,456.596 z" fill="#FFFFFF" id="14-Huddle_18C_27"/>
    <path d="M1421.79,339.534 L1489.154,339.534 L1489.154,396.526 L1421.79,396.526 z" fill="#FFFFFF" id="15-Huddle_18C_26"/>
    <path d="M1594.902,117.695 L1594.902,143.652 L1576.963,143.652 L1576.963,265.971 L1583.408,265.971 L1583.408,312.618 L1700,312.618 L1712.145,117.695 z" fill="#FFFFFF" id="16-Boardroom_18C_25"/>
    <path d="M1359.137,339.533 L1418.643,339.533 L1418.643,375.507 L1359.137,375.507 z" fill="#FFFFFF" id="17-Huddle_18C_24"/>
    <path d="M979.124,202.686 L1045.912,202.686 L1045.912,266.246 L979.124,266.246 z" fill="#FFFFFF" id="18-Huddle_18C_23"/>
    <path d="M908.03,202.686 L976.178,202.686 L976.178,238.747 L908.03,238.747 z" fill="#FFFFFF" id="19-Huddle_18C_22"/>
    <path d="M979.124,269.392 L1045.912,269.392 L1045.912,305.915 L979.124,305.915 z" fill="#FFFFFF" id="20-Huddle_18C_21"/>
    <path d="M908.03,241.892 L976.178,241.892 L976.178,305.915 L908.03,305.915 z" fill="#FFFFFF" id="21-Huddle_18C_20"/>
    <path d="M861.119,339.334 L922.523,339.334 L922.523,375.027 L861.119,375.027 z" fill="#FFFFFF" id="22-Huddle_18C_19"/>
    <path d="M690.247,241.728 L757.681,241.728 L757.681,305.075 L690.247,305.075 z" fill="#FFFFFF" id="23-Huddle_18B_18"/>
    <path d="M690.247,201.65 L757.681,201.65 L757.681,238.633 L690.247,238.633 z" fill="#FFFFFF" id="24-Huddle_18B_17"/>
    <path d="M620.112,202.141 L687.1,202.141 L687.1,265.861 L620.112,265.861 z" fill="#FFFFFF" id="25-Huddle_18B_16"/>
    <path d="M545.991,187.924 L616.968,187.924 L616.968,305.194 L545.991,305.194 z" fill="#FFFFFF" id="26-Conference_18B_15"/>
    <path d="M620.112,269.005 L687.1,269.005 L687.1,305.193 L620.112,305.193 z" fill="#FFFFFF" id="27-Huddle_18B_14"/>
    <path d="M631.331,339.665 L688.004,339.665 L688.004,375.028 L631.331,375.028 z" fill="#FFFFFF" id="28-Huddle_18B_13"/>
    <path d="M570.127,339.665 L628.185,339.665 L628.185,375.028 L570.127,375.028 z" fill="#FFFFFF" id="29-Huddle_18B_12"/>
    <path d="M364.596,222.006 L433.649,222.006 L433.649,292.96 L364.596,292.96 z" fill="#FFFFFF" id="30-Huddle_18B_10"/>
    <path d="M364.596,158.936 L433.649,158.936 L433.649,218.978 L364.596,218.978 z" fill="#FFFFFF" id="31-Huddle_18B_09"/>
    <path d="M414.255,144.065 L414.255,117.827 L364.596,117.827 L364.596,155.805 L433.649,155.805 L433.649,144.065 z" fill="#FFFFFF" id="32-Huddle_18B_08"/>
    <path d="M364.845,622.194 L424.694,622.194 L424.694,658.209 L364.845,658.209 z" fill="#FFFFFF" id="33-Huddle_18A_07"/>
    <path d="M427.001,622.194 L486.849,622.194 L486.849,658.209 L427.001,658.209 z" fill="#FFFFFF" id="34-Huddle_18A_06"/>
    <path d="M544.665,758.214 L589.936,758.214 L589.936,793.051 L544.665,793.051 z" fill="#FFFFFF" id="35-Huddle_18A_05"/>
    <path d="M544.665,693.552 L610.968,693.552 L610.968,755.07 L544.665,755.07 z" fill="#FFFFFF" id="36-Huddle_18A_04"/>
    <path d="M766.472,766.545 L774.67,766.545 L774.67,693.552 L614.636,693.552 L614.636,793.443 L766.472,793.443 z" fill="#FFFFFF" id="37-Conference_18A_03"/>
    <path d="M621.245,592.007 L662.264,592.007 L662.264,658.237 L621.245,658.237 z" fill="#FFFFFF" id="38-Huddle_18A_02"/>
    <path d="M664.797,592.007 L705.817,592.007 L705.817,658.237 L664.797,658.237 z" fill="#FFFFFF" id="39-Huddle_18A_01"/>
    <path d="M1328.809,471.282 L1418.391,471.282 L1418.391,587.253 L1328.809,587.253 z" fill="#FFFFFF" id="00-VCR" display="none"/>
    <path d="M437.945,187.924 L543.404,187.924 L543.404,305.194 L437.945,305.194 z" fill="#FFFFFF" id="00-VCS" display="none"/>
  </g>
</svg>
