<?xml version="1.0" encoding="UTF-8"?>
<!DOCTYPE svg PUBLIC "-//W3C//DTD SVG 1.1//EN" "http://www.w3.org/Graphics/SVG/1.1/DTD/svg11.dtd">
<svg version="1.1" xmlns="http://www.w3.org/2000/svg" xmlns:xlink="http://www.w3.org/1999/xlink" x="0" y="0" width="1920" height="1080" viewBox="0, 0, 1920, 1080">
  <g id="zones" transform="translate(0, 0)">
    <path d="M777.989,752.15 L777.989,752.15 L777.989,751.426 L777.989,751.426 L777.989,591.725 L703.396,591.725 L703.396,410.667 L520.966,410.667 L520.966,410.667 L423.471,410.667 L423.471,410.667 L197.361,410.667 L197.361,569.561 L239.152,569.561 L239.152,793.788 L693.43,793.788 L777.989,793.03 L777.989,793.03 L777.989,793.03 L777.989,793.03 L777.989,778.002 L777.989,778.002 z" fill="#9BDAED"/>
    <path d="M778.002,118.139 L772.425,118.139 L772.425,117.728 L703.396,117.728 L703.396,117.726 L197.361,117.726 L197.361,409.172 L423.471,409.172 L423.471,409.172 L520.966,409.172 L520.966,409.172 L703.396,409.172 L703.396,409.172 L778.002,409.172 L778.002,337.378 L778.002,337.378 L778.002,199.738 L778.002,199.738 z" fill="#E8C4DD"/>
    <path d="M1420,457.471 L1693.402,457.471 L1711.448,117.726 L777.335,118.139 L777.335,199.738 L777.335,337.378 L777.335,409.172 L705.965,409.172 L705.965,589.445 L1327.434,588.923 L1327.434,467.499 L1420,467.499 z" fill="#C9E3B5"/>
    <path d="M1686.506,571.012 L1693.402,457.972 L1420.5,457.966 L1420.5,469.715 L1329.456,469.715 L1329.456,590.185 L778.209,590.185 L778.209,591.725 L778.209,591.725 L778.209,793.03 L983.04,793.03 L1088.705,1042.358 L1661.542,805.812 L1661.217,571.012 z" fill="#F29D9A"/>
    <path d="M944.161,412.281 L944.161,378.058 L901.075,378.058 L901.075,412.281 L856.889,412.281 L856.889,589.587 L911.121,589.587 L911.121,654.47 L940.59,654.47 L940.59,589.587 L1006.513,589.587 L1006.513,412.281 z" fill="#FFFFFF"/>
    <path d="M700.351,410.74 L795.77,410.74 L795.77,657.255 L700.351,657.255 z" fill="#FFFFFF"/>
    <path d="M517.241,376.908 L1322.988,376.908 L1322.988,413.689 L517.241,413.689 z" fill="#FFFFFF"/>
  </g>
</svg>
