<?xml version="1.0" encoding="UTF-8"?>
<!DOCTYPE svg PUBLIC "-//W3C//DTD SVG 1.1//EN" "http://www.w3.org/Graphics/SVG/1.1/DTD/svg11.dtd">
<svg version="1.1" xmlns="http://www.w3.org/2000/svg" xmlns:xlink="http://www.w3.org/1999/xlink" x="0" y="0" width="1920" height="1080" viewBox="0, 0, 1920, 1080">
  <g id="workspaces" transform="translate(0, 0)">
    <path d="M944,591.333 L980.885,591.333 L980.885,657.691 L944,657.691 z" fill="#FFFFFF" id="1-Huddle_17D_46"/>
    <path d="M984.621,591.333 L1053.316,591.333 L1053.316,656.923 L984.621,656.923 z" fill="#FFFFFF" id="2-Huddle_17D_45"/>
    <path d="M1056.285,591.333 L1211.562,591.333 L1211.562,657.691 L1056.285,657.691 z" fill="#FFFFFF" id="3-Conference_17D_44"/>
    <path d="M1158.186,691.954 L1222.037,691.954 L1222.037,756.703 L1158.186,756.703 z" fill="#FFFFFF" id="4-Huddle_17D_43"/>
    <path d="M1126.093,858.554 L1212.364,821.916 L1271.134,964.648 L1185.661,1002.316 z" fill="#FFFFFF" id="5-Conference_17D_42"/>
    <path d="M1225.116,691.954 L1296.998,691.954 L1296.998,756.703 L1225.116,756.703 z" fill="#FFFFFF" id="6-Huddle_17D_41"/>
    <path d="M1300.145,691.954 L1336.643,691.954 L1336.643,756.703 L1300.145,756.703 z" fill="#FFFFFF" id="7-Huddle_17D_40"/>
    <path d="M1215.839,820.116 L1271.835,798.701 L1285.025,833.658 L1229.828,856.104 z" fill="#FFFFFF" id="8-Huddle_17D_39"/>
    <path d="M1230.761,857.753 L1286.757,836.338 L1301.589,870.569 L1244.75,893.74 z" fill="#FFFFFF" id="9-Huddle_17D_38"/>
    <path d="M1247.236,897.008 L1303.232,874.592 L1318.3,913.432 L1261.678,935.229 z" fill="#FFFFFF" id="10-Huddle_17D_37"/>
    <path d="M1417.547,643.574 L1426.438,643.574 L1426.438,518.287 L1329.041,518.287 L1329.041,656.14 L1417.547,656.14 z" fill="#FFFFFF" id="11-Conference_17D_36"/>
    <path d="M1427.891,583.297 L1494.981,583.297 L1494.981,643.57 L1427.891,643.57 z" fill="#FFFFFF" id="12-Huddle_17D_35"/>
    <path d="M1427.891,518.629 L1495.112,518.629 L1495.112,580.277 L1427.891,580.277 z" fill="#FFFFFF" id="13-Huddle_17D_34"/>
    <path d="M1545.63,268.585 L1613.38,268.585 L1613.38,304.857 L1545.63,304.857 z" fill="#FFFFFF" id="14-Huddle_17C_33"/>
    <path d="M1476.604,242.465 L1542.713,242.465 L1542.713,304.857 L1476.604,304.857 z" fill="#FFFFFF" id="15-Huddle_17C_32"/>
    <path d="M1545.859,201.358 L1613.648,201.358 L1613.648,265.438 L1545.859,265.438 z" fill="#FFFFFF" id="16-Huddle_17C_31"/>
    <path d="M1476.3,201.766 L1542.484,201.766 L1542.484,239.319 L1476.3,239.319 z" fill="#FFFFFF" id="17-Huddle_17C_30"/>
    <path d="M1262.907,248.438 L1299.235,248.438 L1299.235,305.365 L1262.907,305.365 z" fill="#FFFFFF" id="18-Huddle_17C_28"/>
    <path d="M1262.907,187.597 L1299.629,187.597 L1299.629,245.291 L1262.907,245.291 z" fill="#FFFFFF" id="19-Huddle_17C_27"/>
    <path d="M1250.957,117.435 L1250.957,117.768 L1245.625,117.768 L1245.625,122.93 L1250.957,122.93 L1250.957,184.609 L1299.629,184.609 L1299.629,117.435 z" fill="#FFFFFF" id="20-Huddle_17C_26"/>
    <path d="M1188.727,340.435 L1250.727,340.435 L1250.727,410.13 L1188.727,410.13 z" fill="#FFFFFF" id="21-Huddle_17C_25"/>
    <path d="M1124.865,340.435 L1185.749,340.435 L1185.749,410.13 L1124.865,410.13 z" fill="#FFFFFF" id="22-Huddle_17C_24"/>
    <path d="M1242.586,126.667 L1242.586,117.865 L1139.821,117.865 L1139.821,184.451 L1248.161,184.451 L1248.161,126.667 z" fill="#FFFFFF" id="23-Conference_17C_23"/>
    <path d="M1058.621,188.402 L1243.678,188.402 L1243.678,305.643 L1058.621,305.643 z" fill="#FFFFFF" id="22-Minisphere_17C_22"/>
    <path d="M1005.905,340.435 L1066.767,340.435 L1066.767,409.618 L1005.905,409.618 z" fill="#FFFFFF" id="23-Huddle_17C_21"/>
    <path d="M768.329,203.485 L834.556,203.485 L834.556,266.495 L768.329,266.495 z" fill="#FFFFFF" id="24-Huddle_17C_20"/>
    <path d="M768.329,269.642 L834.57,269.642 L834.57,306.177 L768.329,306.177 z" fill="#FFFFFF" id="25-Huddle_17C_19"/>
    <path d="M697.158,202.886 L764.18,202.886 L764.18,241.351 L697.158,241.351 z" fill="#FFFFFF" id="26-Huddle_17B_18"/>
    <path d="M697.249,244.404 L765.182,244.404 L765.182,306.163 L697.249,306.163 z" fill="#FFFFFF" id="27-Huddle_17B_17"/>
    <path d="M583.019,341.052 L648.174,341.052 L648.174,409.354 L583.019,409.354 z" fill="#FFFFFF" id="28-Huddle_17B_16"/>
    <path d="M488.57,202.227 L554.573,202.227 L554.573,266.496 L488.57,266.496 z" fill="#FFFFFF" id="29-Huddle_17B_15"/>
    <path d="M418.972,202.435 L485.2,202.435 L485.2,239.666 L418.972,239.666 z" fill="#FFFFFF" id="30-Huddle_17B_14"/>
    <path d="M488.346,269.642 L553.856,269.642 L553.856,306.177 L488.346,306.177 z" fill="#FFFFFF" id="31-Huddle_17B_13"/>
    <path d="M424.124,341.056 L486.062,341.056 L486.062,378.047 L424.124,378.047 z" fill="#FFFFFF" id="32-Huddle_17B_12"/>
    <path d="M418.972,242.813 L485.223,242.813 L485.223,306.146 L418.972,306.146 z" fill="#FFFFFF" id="33-Huddle_17B_11"/>
    <path d="M352.315,355.889 L420.912,355.889 L420.912,393.001 L352.315,393.001 z" fill="#FFFFFF" id="34-Huddle_17B_10"/>
    <path d="M353.243,396.235 L420.833,396.235 L420.833,461.149 L353.243,461.149 z" fill="#FFFFFF" id="35-Huddle_17B_09"/>
    <path d="M353.243,463.762 L420.754,463.762 L420.754,527.991 L353.243,527.991 z" fill="#FFFFFF" id="36-Huddle_17A_08"/>
    <path d="M353.243,531.245 L420.667,531.245 L420.667,602.657 L353.243,602.657 z" fill="#FFFFFF" id="37-Huddle_17A_07"/>
    <path d="M353.072,605.804 L420.62,605.804 L420.62,642.684 L353.072,642.684 z" fill="#FFFFFF" id="38-Huddle_17A_06"/>
    <path d="M423.304,495.124 L517.612,495.124 L517.612,657.903 L423.304,657.903 z" fill="#FFFFFF" id="39-Minisphere_17A_05"/>
    <path d="M580.515,591.666 L641.792,591.666 L641.792,657.932 L580.515,657.932 z" fill="#FFFFFF" id="40-Huddle_17A_04"/>
    <path d="M644.987,591.666 L704.994,591.666 L704.994,657.932 L644.987,657.932 z" fill="#FFFFFF" id="41-Huddle_17A_03"/>
    <path d="M768.981,752.184 L711.439,752.184 L711.439,778.307 L722.158,778.307 L722.158,792.545 L767.771,792.545 L767.771,778.307 L768.981,778.307 z" fill="#FFFFFF" id="42-Huddle_17A_02"/>
    <path d="M711.21,693.264 L777.77,693.264 L777.77,748.475 L711.21,748.475 z" fill="#FFFFFF" id="43-Huddle_17A_01"/>
    <path d="M1370.42,339.319 L1495.111,339.319 L1495.111,514.759 L1370.42,514.759 z" fill="#FFFFFF" id="00-VCS" display="none"/>
    <path d="M800.494,591.666 L912.126,591.666 L912.126,657.932 L800.494,657.932 z" fill="#FFFFFF" id="00-VCR" display="none"/>
  </g>
</svg>
