<?xml version="1.0" encoding="UTF-8"?>
<!DOCTYPE svg PUBLIC "-//W3C//DTD SVG 1.1//EN" "http://www.w3.org/Graphics/SVG/1.1/DTD/svg11.dtd">
<svg version="1.1" xmlns="http://www.w3.org/2000/svg" xmlns:xlink="http://www.w3.org/1999/xlink" x="0" y="0" width="1920" height="1080" viewBox="0, 0, 1920, 1080">
  <g id="zones" transform="translate(0, 0)">
    <path d="M780.148,751.62 L780.148,751.62 L780.148,750.896 L780.148,750.896 L780.148,591.194 L705.556,591.194 L705.556,490.938 L523.125,490.938 L523.125,493.938 L425.629,493.938 L425.629,460.938 L199.52,460.938 L199.52,569.03 L241.311,569.03 L241.311,793.258 L695.588,793.258 L780.148,792.5 L780.148,792.5 L780.148,792.5 L780.148,792.5 L780.148,777.472 L780.148,777.472 z" fill="#9BDAED"/>
    <path d="M780.004,118.139 L774.427,118.139 L774.427,117.728 L705.399,117.728 L705.399,117.726 L199.363,117.726 L199.363,461.095 L425.473,461.095 L425.473,493.466 L522.968,493.466 L522.968,490.466 L705.399,490.466 L705.399,409.172 L780.004,409.172 L780.004,337.378 L780.004,337.378 L780.004,199.738 L780.004,199.738 z" fill="#E8C4DD"/>
    <path d="M1496.961,450.471 L1695.404,450.471 L1713.45,117.726 L779.337,118.139 L779.337,199.738 L779.337,337.378 L779.337,409.172 L707.967,409.172 L707.967,589.445 L1333.936,588.923 L1333.936,516.803 L1496.961,516.803 z" fill="#C9E3B5"/>
    <path d="M1688.508,570.011 L1695.404,450.471 L1497.604,450.465 L1496.001,518.214 L1331.458,518.214 L1331.458,589.184 L780.211,589.184 L780.211,590.724 L780.211,590.724 L780.211,792.029 L985.042,792.029 L1090.707,1041.357 L1663.544,804.811 L1663.219,570.011 z" fill="#F29D9A"/>
    <path d="M946.163,411.28 L946.163,339.353 L903.077,339.353 L903.077,411.28 L858.891,411.28 L858.891,588.586 L913.123,588.586 L913.123,653.469 L942.592,653.469 L942.592,588.586 L1008.515,588.586 L1008.515,411.28 z" fill="#FFFFFF"/>
    <path d="M702.354,409.739 L797.772,409.739 L797.772,656.254 L702.354,656.254 z" fill="#FFFFFF"/>
  </g>
</svg>
