<?xml version="1.0" encoding="UTF-8"?>
<!DOCTYPE svg PUBLIC "-//W3C//DTD SVG 1.1//EN" "http://www.w3.org/Graphics/SVG/1.1/DTD/svg11.dtd">
<svg version="1.1" xmlns="http://www.w3.org/2000/svg" xmlns:xlink="http://www.w3.org/1999/xlink" x="0" y="0" width="1200" height="1014" viewBox="0, 0, 1200, 1014">
  <g id="furniture" transform="translate(0, 0)">
    <g id="Chair">
      <g id="path2008">
        <path d="M494.96,476.362 C493.797,476.268 492.788,476.993 492.709,477.979 L492.109,485.443 C492.028,486.43 492.905,487.309 494.069,487.404 L503.743,489.079 C504.953,489.183 506.015,488.343 506.112,487.202 L506.149,486.773 C506.505,485.775 506.789,484.426 506.914,482.93 C507.046,481.427 506.995,480.048 506.813,479.003 L506.849,478.582 C506.947,477.443 506.043,476.434 504.83,476.329 L494.96,476.362 z" fill="#D3D3D3"/>
        <path d="M494.96,476.362 C493.797,476.268 492.788,476.993 492.709,477.979 L492.109,485.443 C492.028,486.43 492.905,487.309 494.069,487.404 L503.743,489.079 C504.953,489.183 506.015,488.343 506.112,487.202 L506.149,486.773 C506.505,485.775 506.789,484.426 506.914,482.93 C507.046,481.427 506.995,480.048 506.813,479.003 L506.849,478.582 C506.947,477.443 506.043,476.434 504.83,476.329 L494.96,476.362 z" fill-opacity="0" stroke="#000000" stroke-width="0.519" stroke-miterlimit="10"/>
      </g>
      <g id="path2012">
        <path d="M492.656,475.592 C490.923,477.067 490.498,479.417 490.329,481.322 C490.326,481.324 490.329,481.325 490.33,481.328 C490.326,481.342 490.325,481.353 490.325,481.367 C490.324,481.378 490.321,481.388 490.32,481.403 L490.319,481.407 C490.156,483.402 490.166,485.9 491.619,487.724 C491.978,488.175 492.624,488.234 493.058,487.857 C493.276,487.665 493.4,487.4 493.425,487.128 C493.45,486.858 493.318,486.605 493.198,486.357 C492.725,485.399 492.693,483.175 492.828,481.58 C492.96,480.055 493.161,478.019 493.984,477.142 C494.171,476.942 494.314,476.709 494.339,476.455 C494.36,476.192 494.284,475.92 494.099,475.704 C493.73,475.277 493.086,475.224 492.656,475.592 z" fill="#D3D3D3"/>
        <path d="M492.656,475.592 C490.923,477.067 490.498,479.417 490.329,481.322 C490.326,481.324 490.329,481.325 490.33,481.328 C490.326,481.342 490.325,481.353 490.325,481.367 C490.324,481.378 490.321,481.388 490.32,481.403 L490.319,481.407 C490.156,483.402 490.166,485.9 491.619,487.724 C491.978,488.175 492.624,488.234 493.058,487.857 C493.276,487.665 493.4,487.4 493.425,487.128 C493.45,486.858 493.318,486.605 493.198,486.357 C492.725,485.399 492.693,483.175 492.828,481.58 C492.96,480.055 493.161,478.019 493.984,477.142 C494.171,476.942 494.314,476.709 494.339,476.455 C494.36,476.192 494.284,475.92 494.099,475.704 C493.73,475.277 493.086,475.224 492.656,475.592 z" fill-opacity="0" stroke="#000000" stroke-width="0.519" stroke-miterlimit="10"/>
      </g>
      <g id="path2016">
        <path d="M503.032,488.719 C502.917,489.392 502.281,489.857 501.601,489.76 L495.036,488.545 C494.492,488.464 494.126,487.965 494.212,487.428 C494.302,486.892 494.812,486.518 495.353,486.599 L502.001,487.32 C502.679,487.42 503.139,488.045 503.032,488.719 z" fill="#D3D3D3"/>
        <path d="M503.032,488.719 C502.917,489.392 502.281,489.857 501.601,489.76 L495.036,488.545 C494.492,488.464 494.126,487.965 494.212,487.428 C494.302,486.892 494.812,486.518 495.353,486.599 L502.001,487.32 C502.679,487.42 503.139,488.045 503.032,488.719 z" fill-opacity="0" stroke="#000000" stroke-width="0.519" stroke-miterlimit="10"/>
      </g>
      <g id="path2020">
        <path d="M504.009,476.543 C504.015,475.863 503.464,475.295 502.78,475.278 L496.1,475.358 C495.553,475.345 495.104,475.774 495.102,476.32 C495.097,476.864 495.538,477.316 496.083,477.33 L502.759,477.75 C503.443,477.766 504.005,477.225 504.009,476.543 z" fill="#D3D3D3"/>
        <path d="M504.009,476.543 C504.015,475.863 503.464,475.295 502.78,475.278 L496.1,475.358 C495.553,475.345 495.104,475.774 495.102,476.32 C495.097,476.864 495.538,477.316 496.083,477.33 L502.759,477.75 C503.443,477.766 504.005,477.225 504.009,476.543 z" fill-opacity="0" stroke="#000000" stroke-width="0.519" stroke-miterlimit="10"/>
      </g>
    </g>
    <g id="path2022">
      <path d="M468.938,506.955 L506.988,506.955 L506.988,530.545 L468.938,530.545 L468.938,506.955 z" fill="#D3D3D3"/>
      <path d="M468.938,506.955 L506.988,506.955 L506.988,530.545 L468.938,530.545 L468.938,506.955 z" fill-opacity="0" stroke="#000000" stroke-width="0.519" stroke-miterlimit="10"/>
    </g>
    <g id="path2024">
      <path d="M529.571,500.017 L509.948,500.017 L509.948,461.965 L529.571,461.965 L529.571,500.017 z" fill="#D3D3D3"/>
      <path d="M529.571,500.017 L509.948,500.017 L509.948,461.965 L529.571,461.965 L529.571,500.017 z" fill-opacity="0" stroke="#000000" stroke-width="0.519" stroke-miterlimit="10"/>
    </g>
    <g id="Chair">
      <g id="path2028">
        <path d="M494.96,410.408 C493.797,410.5 492.788,409.777 492.709,408.79 L492.109,401.327 C492.028,400.338 492.905,399.46 494.069,399.365 L503.743,397.69 C504.953,397.587 506.015,398.427 506.112,399.568 L506.149,399.995 C506.505,400.994 506.789,402.343 506.914,403.838 C507.046,405.343 506.995,406.722 506.813,407.767 L506.849,408.188 C506.947,409.327 506.043,410.337 504.83,410.44 L494.96,410.408 z" fill="#D3D3D3"/>
        <path d="M494.96,410.408 C493.797,410.5 492.788,409.777 492.709,408.79 L492.109,401.327 C492.028,400.338 492.905,399.46 494.069,399.365 L503.743,397.69 C504.953,397.587 506.015,398.427 506.112,399.568 L506.149,399.995 C506.505,400.994 506.789,402.343 506.914,403.838 C507.046,405.343 506.995,406.722 506.813,407.767 L506.849,408.188 C506.947,409.327 506.043,410.337 504.83,410.44 L494.96,410.408 z" fill-opacity="0" stroke="#000000" stroke-width="0.519" stroke-miterlimit="10"/>
      </g>
      <g id="path2032">
        <path d="M492.656,411.178 C490.923,409.703 490.498,407.353 490.329,405.448 C490.326,405.444 490.329,405.444 490.33,405.443 C490.326,405.429 490.325,405.416 490.325,405.403 C490.324,405.393 490.321,405.381 490.32,405.367 L490.319,405.363 C490.156,403.367 490.166,400.869 491.619,399.046 C491.978,398.594 492.624,398.536 493.058,398.913 C493.276,399.103 493.4,399.368 493.425,399.642 C493.45,399.913 493.318,400.164 493.198,400.413 C492.725,401.369 492.693,403.594 492.828,405.188 C492.96,406.714 493.161,408.751 493.984,409.628 C494.171,409.828 494.314,410.059 494.339,410.314 C494.36,410.577 494.284,410.849 494.099,411.064 C493.73,411.492 493.086,411.546 492.656,411.178 z" fill="#D3D3D3"/>
        <path d="M492.656,411.178 C490.923,409.703 490.498,407.353 490.329,405.448 C490.326,405.444 490.329,405.444 490.33,405.443 C490.326,405.429 490.325,405.416 490.325,405.403 C490.324,405.393 490.321,405.381 490.32,405.367 L490.319,405.363 C490.156,403.367 490.166,400.869 491.619,399.046 C491.978,398.594 492.624,398.536 493.058,398.913 C493.276,399.103 493.4,399.368 493.425,399.642 C493.45,399.913 493.318,400.164 493.198,400.413 C492.725,401.369 492.693,403.594 492.828,405.188 C492.96,406.714 493.161,408.751 493.984,409.628 C494.171,409.828 494.314,410.059 494.339,410.314 C494.36,410.577 494.284,410.849 494.099,411.064 C493.73,411.492 493.086,411.546 492.656,411.178 z" fill-opacity="0" stroke="#000000" stroke-width="0.519" stroke-miterlimit="10"/>
      </g>
      <g id="path2036">
        <path d="M503.032,398.05 C502.917,397.379 502.281,396.913 501.601,397.009 L495.036,398.225 C494.492,398.305 494.126,398.804 494.212,399.343 C494.302,399.878 494.812,400.251 495.353,400.17 L502.001,399.448 C502.679,399.349 503.139,398.724 503.032,398.05 z" fill="#D3D3D3"/>
        <path d="M503.032,398.05 C502.917,397.379 502.281,396.913 501.601,397.009 L495.036,398.225 C494.492,398.305 494.126,398.804 494.212,399.343 C494.302,399.878 494.812,400.251 495.353,400.17 L502.001,399.448 C502.679,399.349 503.139,398.724 503.032,398.05 z" fill-opacity="0" stroke="#000000" stroke-width="0.519" stroke-miterlimit="10"/>
      </g>
      <g id="path2040">
        <path d="M504.009,410.227 C504.015,410.907 503.464,411.473 502.78,411.492 L496.1,411.412 C495.553,411.425 495.104,410.996 495.102,410.45 C495.097,409.906 495.538,409.453 496.083,409.44 L502.759,409.02 C503.443,409.003 504.005,409.543 504.009,410.227 z" fill="#D3D3D3"/>
        <path d="M504.009,410.227 C504.015,410.907 503.464,411.473 502.78,411.492 L496.1,411.412 C495.553,411.425 495.104,410.996 495.102,410.45 C495.097,409.906 495.538,409.453 496.083,409.44 L502.759,409.02 C503.443,409.003 504.005,409.543 504.009,410.227 z" fill-opacity="0" stroke="#000000" stroke-width="0.519" stroke-miterlimit="10"/>
      </g>
    </g>
    <g id="path2042">
      <path d="M470.938,377.814 L508.988,377.814 L508.988,354.222 L470.938,354.222 L470.938,377.814 z" fill="#D3D3D3"/>
      <path d="M470.938,377.814 L508.988,377.814 L508.988,354.222 L470.938,354.222 L470.938,377.814 z" fill-opacity="0" stroke="#000000" stroke-width="0.519" stroke-miterlimit="10"/>
    </g>
    <g id="path2044">
      <path d="M529.571,386.753 L509.948,386.753 L509.948,424.803 L529.571,424.803 L529.571,386.753 z" fill="#D3D3D3"/>
      <path d="M529.571,386.753 L509.948,386.753 L509.948,424.803 L529.571,424.803 L529.571,386.753 z" fill-opacity="0" stroke="#000000" stroke-width="0.519" stroke-miterlimit="10"/>
    </g>
    <g id="Chair">
      <g id="path2048">
        <path d="M494.96,337.376 C493.797,337.468 492.788,336.744 492.709,335.758 L492.109,328.294 C492.028,327.307 492.905,326.427 494.069,326.333 L503.743,324.658 C504.953,324.554 506.015,325.393 506.112,326.534 L506.149,326.963 C506.505,327.961 506.789,329.311 506.914,330.807 C507.046,332.309 506.995,333.689 506.813,334.734 L506.849,335.154 C506.947,336.294 506.043,337.303 504.83,337.408 L494.96,337.376 z" fill="#D3D3D3"/>
        <path d="M494.96,337.376 C493.797,337.468 492.788,336.744 492.709,335.758 L492.109,328.294 C492.028,327.307 492.905,326.427 494.069,326.333 L503.743,324.658 C504.953,324.554 506.015,325.393 506.112,326.534 L506.149,326.963 C506.505,327.961 506.789,329.311 506.914,330.807 C507.046,332.309 506.995,333.689 506.813,334.734 L506.849,335.154 C506.947,336.294 506.043,337.303 504.83,337.408 L494.96,337.376 z" fill-opacity="0" stroke="#000000" stroke-width="0.519" stroke-miterlimit="10"/>
      </g>
      <g id="path2052">
        <path d="M492.656,338.146 C490.923,336.671 490.498,334.321 490.329,332.415 C490.326,332.412 490.329,332.412 490.33,332.41 C490.326,332.396 490.325,332.383 490.325,332.371 C490.324,332.36 490.321,332.348 490.32,332.335 L490.319,332.331 C490.156,330.333 490.166,327.837 491.619,326.013 C491.978,325.562 492.624,325.503 493.058,325.881 C493.276,326.071 493.4,326.337 493.425,326.61 C493.45,326.88 493.318,327.131 493.198,327.381 C492.725,328.337 492.693,330.562 492.828,332.156 C492.96,333.681 493.161,335.718 493.984,336.595 C494.171,336.796 494.314,337.027 494.339,337.282 C494.36,337.545 494.284,337.817 494.099,338.033 C493.73,338.46 493.086,338.512 492.656,338.146 z" fill="#D3D3D3"/>
        <path d="M492.656,338.146 C490.923,336.671 490.498,334.321 490.329,332.415 C490.326,332.412 490.329,332.412 490.33,332.41 C490.326,332.396 490.325,332.383 490.325,332.371 C490.324,332.36 490.321,332.348 490.32,332.335 L490.319,332.331 C490.156,330.333 490.166,327.837 491.619,326.013 C491.978,325.562 492.624,325.503 493.058,325.881 C493.276,326.071 493.4,326.337 493.425,326.61 C493.45,326.88 493.318,327.131 493.198,327.381 C492.725,328.337 492.693,330.562 492.828,332.156 C492.96,333.681 493.161,335.718 493.984,336.595 C494.171,336.796 494.314,337.027 494.339,337.282 C494.36,337.545 494.284,337.817 494.099,338.033 C493.73,338.46 493.086,338.512 492.656,338.146 z" fill-opacity="0" stroke="#000000" stroke-width="0.519" stroke-miterlimit="10"/>
      </g>
      <g id="path2056">
        <path d="M503.032,325.018 C502.917,324.345 502.281,323.88 501.601,323.977 L495.036,325.192 C494.492,325.273 494.126,325.772 494.212,326.309 C494.302,326.845 494.812,327.219 495.353,327.139 L502.001,326.415 C502.679,326.317 503.139,325.692 503.032,325.018 z" fill="#D3D3D3"/>
        <path d="M503.032,325.018 C502.917,324.345 502.281,323.88 501.601,323.977 L495.036,325.192 C494.492,325.273 494.126,325.772 494.212,326.309 C494.302,326.845 494.812,327.219 495.353,327.139 L502.001,326.415 C502.679,326.317 503.139,325.692 503.032,325.018 z" fill-opacity="0" stroke="#000000" stroke-width="0.519" stroke-miterlimit="10"/>
      </g>
      <g id="path2060">
        <path d="M504.009,337.194 C504.015,337.874 503.464,338.441 502.78,338.459 L496.1,338.379 C495.553,338.393 495.104,337.964 495.102,337.418 C495.097,336.874 495.538,336.421 496.083,336.408 L502.759,335.986 C503.443,335.97 504.005,336.511 504.009,337.194 z" fill="#D3D3D3"/>
        <path d="M504.009,337.194 C504.015,337.874 503.464,338.441 502.78,338.459 L496.1,338.379 C495.553,338.393 495.104,337.964 495.102,337.418 C495.097,336.874 495.538,336.421 496.083,336.408 L502.759,335.986 C503.443,335.97 504.005,336.511 504.009,337.194 z" fill-opacity="0" stroke="#000000" stroke-width="0.519" stroke-miterlimit="10"/>
      </g>
    </g>
    <g id="path2062">
      <path d="M529.571,313.72 L509.948,313.72 L509.948,351.77 L529.571,351.77 L529.571,313.72 z" fill="#D3D3D3"/>
      <path d="M529.571,313.72 L509.948,313.72 L509.948,351.77 L529.571,351.77 L529.571,313.72 z" fill-opacity="0" stroke="#000000" stroke-width="0.519" stroke-miterlimit="10"/>
    </g>
    <g id="Chair">
      <g id="path2066">
        <path d="M361.795,305.415 C362.474,306.365 362.372,307.601 361.566,308.177 L355.477,312.535 C354.671,313.111 353.465,312.811 352.785,311.864 L346.37,304.43 C345.659,303.446 345.832,302.104 346.761,301.432 L347.109,301.18 C347.783,300.361 348.794,299.425 350.01,298.546 C351.232,297.66 352.442,296.994 353.431,296.611 L353.772,296.365 C354.7,295.695 356.029,295.95 356.744,296.936 L361.795,305.415 z" fill="#D3D3D3"/>
        <path d="M361.795,305.415 C362.474,306.365 362.372,307.601 361.566,308.177 L355.477,312.535 C354.671,313.111 353.465,312.811 352.785,311.864 L346.37,304.43 C345.659,303.446 345.832,302.104 346.761,301.432 L347.109,301.18 C347.783,300.361 348.794,299.425 350.01,298.546 C351.232,297.66 352.442,296.994 353.431,296.611 L353.772,296.365 C354.7,295.695 356.029,295.95 356.744,296.936 L361.795,305.415 z" fill-opacity="0" stroke="#000000" stroke-width="0.519" stroke-miterlimit="10"/>
      </g>
      <g id="path2070">
        <path d="M363.641,306.994 C363.269,309.239 361.473,310.813 359.926,311.94 L359.921,311.941 C359.911,311.95 359.901,311.959 359.891,311.965 C359.883,311.973 359.874,311.979 359.861,311.988 L359.859,311.99 C358.231,313.156 356.085,314.434 353.774,314.128 C353.204,314.054 352.819,313.529 352.92,312.963 C352.97,312.678 353.134,312.435 353.355,312.273 C353.574,312.113 353.858,312.095 354.134,312.071 C355.196,311.983 357.121,310.866 358.419,309.93 C359.658,309.033 361.3,307.81 361.63,306.655 C361.705,306.39 361.83,306.149 362.035,305.996 C362.249,305.843 362.523,305.768 362.803,305.816 C363.359,305.91 363.735,306.435 363.641,306.994 z" fill="#D3D3D3"/>
        <path d="M363.641,306.994 C363.269,309.239 361.473,310.813 359.926,311.94 L359.921,311.941 C359.911,311.95 359.901,311.959 359.891,311.965 C359.883,311.973 359.874,311.979 359.861,311.988 L359.859,311.99 C358.231,313.156 356.085,314.434 353.774,314.128 C353.204,314.054 352.819,313.529 352.92,312.963 C352.97,312.678 353.134,312.435 353.355,312.273 C353.574,312.113 353.858,312.095 354.134,312.071 C355.196,311.983 357.121,310.866 358.419,309.93 C359.658,309.033 361.3,307.81 361.63,306.655 C361.705,306.39 361.83,306.149 362.035,305.996 C362.249,305.843 362.523,305.768 362.803,305.816 C363.359,305.91 363.735,306.435 363.641,306.994 z" fill-opacity="0" stroke="#000000" stroke-width="0.519" stroke-miterlimit="10"/>
      </g>
      <g id="path2074">
        <path d="M347.046,304.855 C346.528,305.299 346.458,306.084 346.89,306.618 L351.311,311.62 C351.658,312.045 352.277,312.101 352.693,311.751 C353.108,311.399 353.165,310.769 352.816,310.346 L348.775,305.019 C348.341,304.489 347.568,304.415 347.046,304.855 z" fill="#D3D3D3"/>
        <path d="M347.046,304.855 C346.528,305.299 346.458,306.084 346.89,306.618 L351.311,311.62 C351.658,312.045 352.277,312.101 352.693,311.751 C353.108,311.399 353.165,310.769 352.816,310.346 L348.775,305.019 C348.341,304.489 347.568,304.415 347.046,304.855 z" fill-opacity="0" stroke="#000000" stroke-width="0.519" stroke-miterlimit="10"/>
      </g>
      <g id="path2078">
        <path d="M356.983,297.75 C357.563,297.395 358.333,297.575 358.701,298.153 L362.07,303.921 C362.363,304.384 362.225,304.988 361.76,305.273 C361.296,305.556 360.68,305.411 360.388,304.951 L356.592,299.443 C356.225,298.866 356.399,298.106 356.983,297.75 z" fill="#D3D3D3"/>
        <path d="M356.983,297.75 C357.563,297.395 358.333,297.575 358.701,298.153 L362.07,303.921 C362.363,304.384 362.225,304.988 361.76,305.273 C361.296,305.556 360.68,305.411 360.388,304.951 L356.592,299.443 C356.225,298.866 356.399,298.106 356.983,297.75 z" fill-opacity="0" stroke="#000000" stroke-width="0.519" stroke-miterlimit="10"/>
      </g>
    </g>
    <g id="path2080">
      <path d="M313.046,308.185 L332.667,308.185 L332.667,270.135 L313.046,270.135 L313.046,308.185 z" fill="#D3D3D3"/>
      <path d="M313.046,308.185 L332.667,308.185 L332.667,270.135 L313.046,270.135 L313.046,308.185 z" fill-opacity="0" stroke="#000000" stroke-width="0.519" stroke-miterlimit="10"/>
    </g>
    <g id="path2082">
      <path d="M374.818,308.185 L394.439,308.185 L394.439,270.135 L374.818,270.135 L374.818,308.185 z" fill="#D3D3D3"/>
      <path d="M374.818,308.185 L394.439,308.185 L394.439,270.135 L374.818,270.135 L374.818,308.185 z" fill-opacity="0" stroke="#000000" stroke-width="0.519" stroke-miterlimit="10"/>
    </g>
    <g id="path2084">
      <path d="M372.476,269.985 L334.426,269.985 L334.426,289.607 L372.476,289.607 L372.476,269.985 z" fill="#D3D3D3"/>
      <path d="M372.476,269.985 L334.426,269.985 L334.426,289.607 L372.476,289.607 L372.476,269.985 z" fill-opacity="0" stroke="#000000" stroke-width="0.519" stroke-miterlimit="10"/>
    </g>
    <g id="Chair">
      <g id="path2088">
        <path d="M177.156,536.031 C176.771,534.932 177.216,533.772 178.15,533.446 L185.216,530.97 C186.153,530.641 187.225,531.267 187.611,532.366 L191.688,541.3 C192.095,542.445 191.553,543.685 190.473,544.068 L190.068,544.212 C189.193,544.81 187.959,545.428 186.545,545.931 C185.125,546.436 183.778,546.739 182.72,546.827 L182.323,546.969 C181.245,547.355 180.04,546.735 179.63,545.587 L177.156,536.031 z" fill="#D3D3D3"/>
        <path d="M177.156,536.031 C176.771,534.932 177.216,533.772 178.15,533.446 L185.216,530.97 C186.153,530.641 187.225,531.267 187.611,532.366 L191.688,541.3 C192.095,542.445 191.553,543.685 190.473,544.068 L190.068,544.212 C189.193,544.81 187.959,545.428 186.545,545.931 C185.125,546.436 183.778,546.739 182.72,546.827 L182.323,546.969 C181.245,547.355 180.04,546.735 179.63,545.587 L177.156,536.031 z" fill-opacity="0" stroke="#000000" stroke-width="0.519" stroke-miterlimit="10"/>
      </g>
      <g id="path2092">
        <path d="M175.828,534 C176.814,531.948 178.98,530.943 180.779,530.294 C180.781,530.289 180.783,530.294 180.784,530.294 C180.796,530.286 180.809,530.281 180.821,530.279 C180.831,530.275 180.841,530.27 180.855,530.267 L180.859,530.265 C182.749,529.6 185.166,528.975 187.299,529.917 C187.826,530.147 188.046,530.76 187.791,531.272 C187.663,531.534 187.439,531.722 187.181,531.817 C186.924,531.91 186.649,531.846 186.376,531.79 C185.333,531.578 183.171,532.11 181.664,532.645 C180.223,533.16 178.304,533.87 177.663,534.891 C177.518,535.125 177.33,535.318 177.089,535.409 C176.841,535.496 176.558,535.491 176.303,535.367 C175.795,535.12 175.581,534.51 175.828,534 z" fill="#D3D3D3"/>
        <path d="M175.828,534 C176.814,531.948 178.98,530.943 180.779,530.294 C180.781,530.289 180.783,530.294 180.784,530.294 C180.796,530.286 180.809,530.281 180.821,530.279 C180.831,530.275 180.841,530.27 180.855,530.267 L180.859,530.265 C182.749,529.6 185.166,528.975 187.299,529.917 C187.826,530.147 188.046,530.76 187.791,531.272 C187.663,531.534 187.439,531.722 187.181,531.817 C186.924,531.91 186.649,531.846 186.376,531.79 C185.333,531.578 183.171,532.11 181.664,532.645 C180.223,533.16 178.304,533.87 177.663,534.891 C177.518,535.125 177.33,535.318 177.089,535.409 C176.841,535.496 176.558,535.491 176.303,535.367 C175.795,535.12 175.581,534.51 175.828,534 z" fill-opacity="0" stroke="#000000" stroke-width="0.519" stroke-miterlimit="10"/>
      </g>
      <g id="path2096">
        <path d="M191.158,540.704 C191.781,540.423 192.068,539.686 191.802,539.056 L188.961,533.014 C188.745,532.508 188.17,532.281 187.67,532.501 C187.173,532.723 186.942,533.311 187.158,533.814 L189.545,540.061 C189.813,540.691 190.533,540.98 191.158,540.704 z" fill="#D3D3D3"/>
        <path d="M191.158,540.704 C191.781,540.423 192.068,539.686 191.802,539.056 L188.961,533.014 C188.745,532.508 188.17,532.281 187.67,532.501 C187.173,532.723 186.942,533.311 187.158,533.814 L189.545,540.061 C189.813,540.691 190.533,540.98 191.158,540.704 z" fill-opacity="0" stroke="#000000" stroke-width="0.519" stroke-miterlimit="10"/>
      </g>
      <g id="path2100">
        <path d="M179.63,544.74 C178.972,544.918 178.286,544.529 178.093,543.871 L176.476,537.391 C176.323,536.863 176.625,536.325 177.152,536.18 C177.677,536.038 178.227,536.351 178.378,536.873 L180.48,543.223 C180.668,543.881 180.288,544.563 179.63,544.74 z" fill="#D3D3D3"/>
        <path d="M179.63,544.74 C178.972,544.918 178.286,544.529 178.093,543.871 L176.476,537.391 C176.323,536.863 176.625,536.325 177.152,536.18 C177.677,536.038 178.227,536.351 178.378,536.873 L180.48,543.223 C180.668,543.881 180.288,544.563 179.63,544.74 z" fill-opacity="0" stroke="#000000" stroke-width="0.519" stroke-miterlimit="10"/>
      </g>
    </g>
    <g id="path2102">
      <path d="M147.771,568.948 L167.392,568.948 L167.392,530.899 L147.771,530.899 L147.771,568.948 z" fill="#D3D3D3"/>
      <path d="M147.771,568.948 L167.392,568.948 L167.392,530.899 L147.771,530.899 L147.771,568.948 z" fill-opacity="0" stroke="#000000" stroke-width="0.519" stroke-miterlimit="10"/>
    </g>
    <g id="path2104">
      <path d="M205.443,549.327 L167.393,549.327 L167.393,568.948 L205.443,568.948 L205.443,549.327 z" fill="#D3D3D3"/>
      <path d="M205.443,549.327 L167.393,549.327 L167.393,568.948 L205.443,568.948 L205.443,549.327 z" fill-opacity="0" stroke="#000000" stroke-width="0.519" stroke-miterlimit="10"/>
    </g>
    <g id="Chair">
      <g id="path2108">
        <path d="M169.977,430.359 C169.883,429.194 170.608,428.187 171.593,428.105 L179.057,427.507 C180.047,427.425 180.926,428.303 181.018,429.467 L182.693,439.142 C182.797,440.35 181.958,441.413 180.817,441.509 L180.388,441.547 C179.391,441.904 178.042,442.187 176.545,442.312 C175.042,442.444 173.661,442.393 172.618,442.21 L172.196,442.245 C171.057,442.345 170.048,441.44 169.945,440.228 L169.977,430.359 z" fill="#D3D3D3"/>
        <path d="M169.977,430.359 C169.883,429.194 170.608,428.187 171.593,428.105 L179.057,427.507 C180.047,427.425 180.926,428.303 181.018,429.467 L182.693,439.142 C182.797,440.35 181.958,441.413 180.817,441.509 L180.388,441.547 C179.391,441.904 178.042,442.187 176.545,442.312 C175.042,442.444 173.661,442.393 172.618,442.21 L172.196,442.245 C171.057,442.345 170.048,441.44 169.945,440.228 L169.977,430.359 z" fill-opacity="0" stroke="#000000" stroke-width="0.519" stroke-miterlimit="10"/>
      </g>
      <g id="path2112">
        <path d="M169.206,428.055 C170.681,426.321 173.031,425.896 174.936,425.726 C174.94,425.724 174.94,425.726 174.942,425.729 C174.955,425.724 174.967,425.722 174.981,425.722 C174.992,425.721 175.002,425.72 175.017,425.717 L175.021,425.717 C177.017,425.555 179.515,425.564 181.339,427.017 C181.79,427.374 181.847,428.022 181.472,428.454 C181.28,428.674 181.016,428.797 180.742,428.822 C180.472,428.847 180.22,428.715 179.972,428.595 C179.014,428.122 176.79,428.089 175.196,428.225 C173.67,428.357 171.634,428.557 170.756,429.381 C170.556,429.569 170.325,429.711 170.07,429.736 C169.807,429.757 169.535,429.681 169.32,429.496 C168.892,429.127 168.839,428.484 169.206,428.055 z" fill="#D3D3D3"/>
        <path d="M169.206,428.055 C170.681,426.321 173.031,425.896 174.936,425.726 C174.94,425.724 174.94,425.726 174.942,425.729 C174.955,425.724 174.967,425.722 174.981,425.722 C174.992,425.721 175.002,425.72 175.017,425.717 L175.021,425.717 C177.017,425.555 179.515,425.564 181.339,427.017 C181.79,427.374 181.847,428.022 181.472,428.454 C181.28,428.674 181.016,428.797 180.742,428.822 C180.472,428.847 180.22,428.715 179.972,428.595 C179.014,428.122 176.79,428.089 175.196,428.225 C173.67,428.357 171.634,428.557 170.756,429.381 C170.556,429.569 170.325,429.711 170.07,429.736 C169.807,429.757 169.535,429.681 169.32,429.496 C168.892,429.127 168.839,428.484 169.206,428.055 z" fill-opacity="0" stroke="#000000" stroke-width="0.519" stroke-miterlimit="10"/>
      </g>
      <g id="path2116">
        <path d="M182.334,438.43 C183.007,438.316 183.472,437.677 183.375,436.998 L182.16,430.433 C182.079,429.89 181.58,429.525 181.042,429.611 C180.505,429.7 180.133,430.21 180.214,430.752 L180.937,437.398 C181.035,438.077 181.659,438.537 182.334,438.43 z" fill="#D3D3D3"/>
        <path d="M182.334,438.43 C183.007,438.316 183.472,437.677 183.375,436.998 L182.16,430.433 C182.079,429.89 181.58,429.525 181.042,429.611 C180.505,429.7 180.133,430.21 180.214,430.752 L180.937,437.398 C181.035,438.077 181.659,438.537 182.334,438.43 z" fill-opacity="0" stroke="#000000" stroke-width="0.519" stroke-miterlimit="10"/>
      </g>
      <g id="path2120">
        <path d="M170.157,439.407 C169.477,439.412 168.91,438.862 168.892,438.177 L168.973,431.497 C168.96,430.949 169.388,430.502 169.933,430.499 C170.477,430.493 170.931,430.934 170.945,431.482 L171.365,438.157 C171.381,438.841 170.841,439.402 170.157,439.407 z" fill="#D3D3D3"/>
        <path d="M170.157,439.407 C169.477,439.412 168.91,438.862 168.892,438.177 L168.973,431.497 C168.96,430.949 169.388,430.502 169.933,430.499 C170.477,430.493 170.931,430.934 170.945,431.482 L171.365,438.157 C171.381,438.841 170.841,439.402 170.157,439.407 z" fill-opacity="0" stroke="#000000" stroke-width="0.519" stroke-miterlimit="10"/>
      </g>
    </g>
    <g id="path2122">
      <path d="M157.582,466.969 L195.632,466.969 L195.632,447.348 L157.582,447.348 L157.582,466.969 z" fill="#D3D3D3"/>
      <path d="M157.582,466.969 L195.632,466.969 L195.632,447.348 L157.582,447.348 L157.582,466.969 z" fill-opacity="0" stroke="#000000" stroke-width="0.519" stroke-miterlimit="10"/>
    </g>
    <g id="path2124">
      <path d="M137.623,446.718 L157.244,446.718 L157.244,408.668 L137.623,408.668 L137.623,446.718 z" fill="#D3D3D3"/>
      <path d="M137.623,446.718 L157.244,446.718 L157.244,408.668 L137.623,408.668 L137.623,446.718 z" fill-opacity="0" stroke="#000000" stroke-width="0.519" stroke-miterlimit="10"/>
    </g>
    <g id="Bills_Desk">
      <g id="path2154">
        <path d="M368.622,614.763 L318.999,614.763 L318.999,632.473 L368.622,632.473 L368.622,614.763 z" fill="#D3D3D3"/>
        <path d="M368.622,614.763 L318.999,614.763 L318.999,632.473 L368.622,632.473 L368.622,614.763 z" fill-opacity="0" stroke="#000000" stroke-width="1.039" stroke-miterlimit="10"/>
      </g>
      <g id="path2158">
        <path d="M319.388,614.763 L316.664,614.763 L308.101,632.473 L319.388,632.473 L319.388,614.763 z" fill="#D3D3D3"/>
        <path d="M319.388,614.763 L316.664,614.763 L308.101,632.473 L319.388,632.473 L319.388,614.763 z" fill-opacity="0" stroke="#000000" stroke-width="1.039" stroke-miterlimit="10"/>
      </g>
      <g id="path2162">
        <path d="M368.623,614.763 L371.348,614.763 L379.909,632.473 L368.623,632.473 L368.623,614.763 z" fill="#D3D3D3"/>
        <path d="M368.623,614.763 L371.348,614.763 L379.909,632.473 L368.623,632.473 L368.623,614.763 z" fill-opacity="0" stroke="#000000" stroke-width="1.039" stroke-miterlimit="10"/>
      </g>
      <g id="path2164">
        <path d="M366.287,621.575 L321.334,621.575 L321.334,632.474 L366.287,632.474 L366.287,621.575 z" fill="#D3D3D3"/>
        <path d="M366.287,621.575 L321.334,621.575 L321.334,632.474 L366.287,632.474 L366.287,621.575 z" fill-opacity="0" stroke="#000000" stroke-width="1.039" stroke-miterlimit="10"/>
      </g>
    </g>
    <path d="M822.681,872.138 L825.076,872.138 L854.779,872.138 L857.175,872.138 L857.175,870.947 L855.736,870.947 L853.959,869.74 L826.035,869.74 L824.279,870.947 L822.681,870.947 L822.681,872.138 z" fill-opacity="0" stroke="#000000" stroke-width="1.039" stroke-miterlimit="10" id="path1008"/>
    <g id="LCD">
      <path d="M1038.256,994.667 L1038.256,992.272 L1038.256,951.073 L1038.256,948.678 L1037.066,948.678 L1037.066,950.115 L1035.859,951.893 L1035.859,991.314 L1037.066,993.073 L1037.066,994.667 L1038.256,994.667 z" fill="#FFFFFF" id="path1012"/>
      <path d="M1038.756,995.167 L1038.756,992.772 L1038.756,951.573 L1038.756,949.178 L1037.566,949.178 L1037.566,950.615 L1036.359,952.393 L1036.359,991.814 L1037.566,993.573 L1037.566,995.167 L1038.756,995.167 z" fill-opacity="0" stroke="#000000" stroke-width="1.039" stroke-miterlimit="10" id="path1016"/>
    </g>
    <g id="LCD">
      <path d="M561.875,643.837 L587.007,643.837 L588.589,642.75 L590.027,642.75 L590.027,641.678 L587.869,641.678 L561.138,641.678 L558.983,641.678 L558.983,642.75 L560.276,642.75 L561.875,643.837 z" fill="#D3D3D3" id="path1956"/>
      <g id="path1960">
        <path d="M562.375,644.337 L587.507,644.337 L589.089,643.25 L590.527,643.25 L590.527,642.178 L588.369,642.178 L561.638,642.178 L559.483,642.178 L559.483,643.25 L560.776,643.25 L562.375,644.337 z" fill="#D3D3D3"/>
        <path d="M562.375,644.337 L587.507,644.337 L589.089,643.25 L590.527,643.25 L590.527,642.178 L588.369,642.178 L561.638,642.178 L559.483,642.178 L559.483,643.25 L560.776,643.25 L562.375,644.337 z" fill-opacity="0" stroke="#000000" stroke-width="0.468" stroke-miterlimit="10"/>
      </g>
    </g>
    <g id="LCD">
      <path d="M440.26,643.837 L463.1,643.837 L464.537,642.75 L465.845,642.75 L465.845,641.678 L463.885,641.678 L439.589,641.678 L437.63,641.678 L437.63,642.75 L438.806,642.75 L440.26,643.837 z" fill="#D3D3D3" id="path1964"/>
      <g id="path1968">
        <path d="M440.76,644.337 L463.6,644.337 L465.037,643.25 L466.345,643.25 L466.345,642.178 L464.385,642.178 L440.089,642.178 L438.13,642.178 L438.13,643.25 L439.306,643.25 L440.76,644.337 z" fill="#D3D3D3"/>
        <path d="M440.76,644.337 L463.6,644.337 L465.037,643.25 L466.345,643.25 L466.345,642.178 L464.385,642.178 L440.089,642.178 L438.13,642.178 L438.13,643.25 L439.306,643.25 L440.76,644.337 z" fill-opacity="0" stroke="#000000" stroke-width="0.445" stroke-miterlimit="10"/>
      </g>
    </g>
    <g id="LCD">
      <path d="M376.147,740.692 L376.147,743.087 L376.147,772.79 L376.147,775.185 L377.337,775.185 L377.337,773.746 L378.544,771.967 L378.544,744.045 L377.337,742.286 L377.337,740.692 L376.147,740.692 z" fill="#D3D3D3" id="path1976"/>
      <g id="path1980">
        <path d="M376.647,741.192 L376.647,743.587 L376.647,773.29 L376.647,775.685 L377.837,775.685 L377.837,774.246 L379.044,772.467 L379.044,744.545 L377.837,742.786 L377.837,741.192 L376.647,741.192 z" fill="#D3D3D3"/>
        <path d="M376.647,741.192 L376.647,743.587 L376.647,773.29 L376.647,775.685 L377.837,775.685 L377.837,774.246 L379.044,772.467 L379.044,744.545 L377.837,742.786 L377.837,741.192 L376.647,741.192 z" fill-opacity="0" stroke="#000000" stroke-width="1.039" stroke-miterlimit="10"/>
      </g>
    </g>
    <g id="LCD">
      <path d="M376.147,669.366 L376.147,671.764 L376.147,701.466 L376.147,703.861 L377.337,703.861 L377.337,702.423 L378.544,700.645 L378.544,672.721 L377.337,670.963 L377.337,669.366 L376.147,669.366 z" fill="#D3D3D3" id="path1984"/>
      <g id="path1988">
        <path d="M376.647,669.866 L376.647,672.264 L376.647,701.966 L376.647,704.361 L377.837,704.361 L377.837,702.923 L379.044,701.145 L379.044,673.221 L377.837,671.463 L377.837,669.866 L376.647,669.866 z" fill="#D3D3D3"/>
        <path d="M376.647,669.866 L376.647,672.264 L376.647,701.966 L376.647,704.361 L377.837,704.361 L377.837,702.923 L379.044,701.145 L379.044,673.221 L377.837,671.463 L377.837,669.866 L376.647,669.866 z" fill-opacity="0" stroke="#000000" stroke-width="1.039" stroke-miterlimit="10"/>
      </g>
    </g>
    <g id="LCD">
      <path d="M376.147,812.015 L376.147,814.41 L376.147,844.112 L376.147,846.508 L377.337,846.508 L377.337,845.069 L378.544,843.291 L378.544,815.367 L377.337,813.611 L377.337,812.015 L376.147,812.015 z" fill="#D3D3D3" id="path1992"/>
      <g id="path1996">
        <path d="M376.647,812.515 L376.647,814.91 L376.647,844.612 L376.647,847.008 L377.837,847.008 L377.837,845.569 L379.044,843.791 L379.044,815.867 L377.837,814.111 L377.837,812.515 L376.647,812.515 z" fill="#D3D3D3"/>
        <path d="M376.647,812.515 L376.647,814.91 L376.647,844.612 L376.647,847.008 L377.837,847.008 L377.837,845.569 L379.044,843.791 L379.044,815.867 L377.837,814.111 L377.837,812.515 L376.647,812.515 z" fill-opacity="0" stroke="#000000" stroke-width="1.039" stroke-miterlimit="10"/>
      </g>
    </g>
    <g id="LCD">
      <path d="M532.397,863.117 L534.154,861.913 L535.752,861.913 L535.752,860.722 L533.356,860.722 L517.546,860.722 L515.151,860.722 L515.151,861.913 L516.587,861.913 L518.366,863.117 L532.397,863.117 z" fill="#D3D3D3" id="path2000"/>
      <g id="path2004">
        <path d="M532.807,863.217 L534.564,862.013 L536.162,862.013 L536.162,860.822 L533.766,860.822 L517.956,860.822 L515.561,860.822 L515.561,862.013 L516.997,862.013 L518.776,863.217 L532.807,863.217 z" fill="#D3D3D3"/>
        <path d="M532.807,863.217 L534.564,862.013 L536.162,862.013 L536.162,860.822 L533.766,860.822 L517.956,860.822 L515.561,860.822 L515.561,862.013 L516.997,862.013 L518.776,863.217 L532.807,863.217 z" fill-opacity="0" stroke="#000000" stroke-width="1.039" stroke-miterlimit="10"/>
      </g>
    </g>
    <g id="path1722">
      <path d="M770.442,604.901 L752.827,604.901 L752.827,586.3 L770.442,586.3 L770.442,604.901 z" fill="#D3D3D3"/>
      <path d="M770.442,604.901 L752.827,604.901 L752.827,586.3 L770.442,586.3 L770.442,604.901 z" fill-opacity="0" stroke="#000000" stroke-width="1.039" stroke-miterlimit="10"/>
    </g>
    <g id="path2080">
      <path d="M139.535,77.783 L156.696,77.783 L156.696,21.733 L139.535,21.733 L139.535,77.783 z" fill="#D3D3D3"/>
      <path d="M139.535,77.783 L156.696,77.783 L156.696,21.733 L139.535,21.733 L139.535,77.783 z" fill-opacity="0" stroke="#000000" stroke-width="0.519" stroke-miterlimit="10"/>
    </g>
    <g id="path2080">
      <path d="M181.534,78.647 L198.695,78.647 L198.695,22.597 L181.534,22.597 L181.534,78.647 z" fill="#D3D3D3"/>
      <path d="M181.534,78.647 L198.695,78.647 L198.695,22.597 L181.534,22.597 L181.534,78.647 z" fill-opacity="0" stroke="#000000" stroke-width="0.519" stroke-miterlimit="10"/>
    </g>
    <g id="path2080">
      <path d="M198.695,78.647 L215.855,78.647 L215.855,22.597 L198.695,22.597 L198.695,78.647 z" fill="#D3D3D3"/>
      <path d="M198.695,78.647 L215.855,78.647 L215.855,22.597 L198.695,22.597 L198.695,78.647 z" fill-opacity="0" stroke="#000000" stroke-width="0.519" stroke-miterlimit="10"/>
    </g>
    <g id="path2080">
      <path d="M238.917,78.647 L256.077,78.647 L256.077,22.597 L238.917,22.597 L238.917,78.647 z" fill="#D3D3D3"/>
      <path d="M238.917,78.647 L256.077,78.647 L256.077,22.597 L238.917,22.597 L238.917,78.647 z" fill-opacity="0" stroke="#000000" stroke-width="0.519" stroke-miterlimit="10"/>
    </g>
    <g id="path2080">
      <path d="M256.077,78.647 L273.238,78.647 L273.238,22.597 L256.077,22.597 L256.077,78.647 z" fill="#D3D3D3"/>
      <path d="M256.077,78.647 L273.238,78.647 L273.238,22.597 L256.077,22.597 L256.077,78.647 z" fill-opacity="0" stroke="#000000" stroke-width="0.519" stroke-miterlimit="10"/>
    </g>
    <g id="path2080">
      <path d="M298.346,78.647 L315.507,78.647 L315.507,22.597 L298.346,22.597 L298.346,78.647 z" fill="#D3D3D3"/>
      <path d="M298.346,78.647 L315.507,78.647 L315.507,22.597 L298.346,22.597 L298.346,78.647 z" fill-opacity="0" stroke="#000000" stroke-width="0.519" stroke-miterlimit="10"/>
    </g>
    <g id="path2080">
      <path d="M315.507,78.647 L332.667,78.647 L332.667,22.597 L315.507,22.597 L315.507,78.647 z" fill="#D3D3D3"/>
      <path d="M315.507,78.647 L332.667,78.647 L332.667,22.597 L315.507,22.597 L315.507,78.647 z" fill-opacity="0" stroke="#000000" stroke-width="0.519" stroke-miterlimit="10"/>
    </g>
    <g id="path2080">
      <path d="M359.153,78.647 L376.314,78.647 L376.314,22.597 L359.153,22.597 L359.153,78.647 z" fill="#D3D3D3"/>
      <path d="M359.153,78.647 L376.314,78.647 L376.314,22.597 L359.153,22.597 L359.153,78.647 z" fill-opacity="0" stroke="#000000" stroke-width="0.519" stroke-miterlimit="10"/>
    </g>
    <g id="path2080">
      <path d="M376.314,78.647 L393.474,78.647 L393.474,22.597 L376.314,22.597 L376.314,78.647 z" fill="#D3D3D3"/>
      <path d="M376.314,78.647 L393.474,78.647 L393.474,22.597 L376.314,22.597 L376.314,78.647 z" fill-opacity="0" stroke="#000000" stroke-width="0.519" stroke-miterlimit="10"/>
    </g>
  </g>
</svg>
