<?xml version="1.0" encoding="UTF-8"?>
<!DOCTYPE svg PUBLIC "-//W3C//DTD SVG 1.1//EN" "http://www.w3.org/Graphics/SVG/1.1/DTD/svg11.dtd">
<svg version="1.1" xmlns="http://www.w3.org/2000/svg" xmlns:xlink="http://www.w3.org/1999/xlink" x="0" y="0" width="1200" height="1014" viewBox="0, 0, 1200, 1014">
  <g id="guides" transform="translate(0, 0)">
    <g id="g690">
      <path d="M770.123,771.946 L745.86,747.683 L734.855,747.683 L770.123,782.952 L770.123,771.946 z" fill="#D82C2C" id="path698"/>
      <path d="M707.485,700.41 L756.283,651.609 L750.781,646.109 L696.479,700.41 L707.485,700.41 z" fill="#D82C2C" id="path702"/>
      <path d="M725.719,700.41 L770.122,656.004 L770.122,647.214 L769.016,646.109 L714.714,700.41 L725.719,700.41 z" fill="#D82C2C" id="path706"/>
      <path d="M753.089,747.683 L770.123,764.717 L770.123,753.711 L764.096,747.683 L753.089,747.683 z" fill="#D82C2C" id="path710"/>
      <path d="M762.188,700.41 L770.123,692.475 L770.123,681.468 L751.182,700.41 L762.188,700.41 z" fill="#D82C2C" id="path714"/>
      <path d="M743.954,700.41 L770.124,674.239 L770.124,663.235 L732.949,700.41 L743.954,700.41 z" fill="#D82C2C" id="path718"/>
      <path d="M698.387,747.683 L750.78,800.078 L756.282,794.576 L709.391,747.683 L698.387,747.683 z" fill="#D82C2C" id="path722"/>
      <path d="M678.244,745.776 L678.244,745.774 L678.243,745.776 L678.244,745.776 z" fill="#D82C2C" id="path726"/>
      <path d="M770.123,790.181 L727.626,747.683 L716.621,747.683 L769.014,800.078 L770.123,798.97 L770.123,790.181 z" fill="#D82C2C" id="path730"/>
      <path d="M680.152,747.683 L732.545,800.078 L738.049,794.576 L691.156,747.683 L680.152,747.683 z" fill="#D82C2C" id="path734"/>
      <path d="M738.05,651.609 L732.547,646.109 L678.244,700.41 L689.25,700.41 L738.05,651.609 z" fill="#D82C2C" id="path738"/>
      <path d="M1075.111,690.698 L1061.801,677.388 L1048.49,690.698 L1055.841,690.698 L1055.841,706.638 L1067.76,706.638 L1067.76,690.698 L1075.111,690.698 z" fill="#D82C2C" id="path742"/>
      <path d="M882.337,999.341 L895.647,1012.651 L908.959,999.341 L901.607,999.341 L901.607,983.401 L889.689,983.401 L889.689,999.341 L882.337,999.341 z" fill="#D82C2C" id="path746"/>
      <path d="M882.337,916.856 L895.647,930.166 L908.959,916.856 L901.607,916.856 L901.607,900.916 L889.689,900.916 L889.689,916.856 L882.337,916.856 z" fill="#D82C2C" id="path750"/>
      <path d="M1071.322,574.429 L1084.632,561.119 L1071.322,547.81 L1071.322,555.159 L1055.382,555.159 L1055.382,567.078 L1071.322,567.078 L1071.322,574.429 z" fill="#D82C2C" id="path754"/>
    </g>
    <path d="M87.146,615.183 L73.836,601.875 L87.146,588.564 L87.146,595.915 L103.087,595.915 L103.087,607.834 L87.146,607.834 L87.146,615.183 z" fill="#D82C2C" id="path770"/>
    <path d="M45.008,123.361 L31.698,110.053 L45.008,96.742 L45.008,104.093 L60.949,104.093 L60.949,116.012 L45.008,116.012 L45.008,123.361 z" fill="#D82C2C" id="path770"/>
    <path d="M12.165,8.733 L12.165,1001.5" fill-opacity="0" stroke="#282828" stroke-width="5"/>
  </g>
</svg>
