<?xml version="1.0" encoding="UTF-8"?>
<!DOCTYPE svg PUBLIC "-//W3C//DTD SVG 1.1//EN" "http://www.w3.org/Graphics/SVG/1.1/DTD/svg11.dtd">
<svg version="1.1" xmlns="http://www.w3.org/2000/svg" xmlns:xlink="http://www.w3.org/1999/xlink" x="0" y="0" width="1550" height="1080" viewBox="0, 0, 1550, 1080">
  <g id="wayfinder" transform="translate(0, 0)">
    <path d="M179.144,395.127 L246.222,395.127 L246.222,460.27 L179.144,460.27 z" fill="#FFFFFF" id="1-Huddle_1675"/>
    <path d="M179.144,463.158 L246.144,463.158 L246.144,526.987 L179.144,526.987 z" fill="#FFFFFF" id="2-Huddle_1677"/>
    <path d="M179.144,529.781 L246.058,529.781 L246.058,600.931 L179.144,600.931 z" fill="#FFFFFF" id="3-Huddle_1679"/>
    <path d="M405.977,589.886 L466.814,589.886 L466.814,656.23 L405.977,656.23 z" fill="#FFFFFF" id="4-Huddle_1686"/>
    <path d="M472.183,588.566 L531.177,588.566 L531.177,654.91 L472.183,654.91 z" fill="#FFFFFF" id="5-Huddle_1687"/>
    <path d="M769.819,588.855 L807.616,588.855 L807.616,656.247 L769.819,656.247 z" fill="#FFFFFF" id="6-Huddle_1605"/>
    <path d="M809.767,588.855 L847.564,588.855 L847.564,656.247 L809.767,656.247 z" fill="#FFFFFF" id="7-Huddle_1606"/>
    <path d="M851.313,588.855 L916.065,588.855 L916.065,656.247 L851.313,656.247 z" fill="#FFFFFF" id="8-Huddle_1607"/>
    <path d="M919.811,588.855 L1037.166,588.855 L1037.166,656.247 L919.811,656.247 z" fill="#FFFFFF" id="9-Conference_1608"/>
    <path d="M984.926,690.91 L1047.581,690.91 L1047.581,754.905 L984.926,754.905 z" fill="#FFFFFF" id="10-Huddle_1623"/>
    <path d="M1051.667,690.91 L1123.178,690.91 L1123.178,754.905 L1051.667,754.905 z" fill="#FFFFFF" id="11-Huddle_1624"/>
    <path d="M1126.757,690.91 L1162.512,690.91 L1162.512,754.905 L1126.757,754.905 z" fill="#FFFFFF" id="12-Huddle_1625"/>
    <path d="M1235.901,600.815 L1274.048,600.815 L1274.048,657.043 L1235.901,657.043 z" fill="#FFFFFF" id="13-Huddle_1650"/>
    <path d="M1277.28,601.768 L1313.286,601.768 L1313.286,656.247 L1277.28,656.247 z" fill="#FFFFFF" id="14-Huddle_1631"/>
    <path d="M1248.084,351.822 L1311.919,351.822 L1311.919,388.329 L1248.084,388.329 z" fill="#FFFFFF" id="15-Huddle_1638"/>
    <path d="M1021.193,340.696 L1082.147,340.696 L1082.147,410.329 L1021.193,410.329 z" fill="#FFFFFF" id="16-Huddle_1651"/>
    <path d="M949.612,340.696 L1019.046,340.696 L1019.046,410.329 L949.612,410.329 z" fill="#FFFFFF" id="17-Huddle_1652"/>
    <path d="M696.88,338.601 L734.362,338.601 L734.362,409.282 L696.88,409.282 z" fill="#FFFFFF" id="18-Huddle_1659"/>
    <path d="M535.98,691.483 L602.635,691.483 L602.635,746.702 L535.98,746.702 z" fill="#FFFFFF" id="19-Huddle_1602"/>
    <path d="M535.98,751.149 L535.98,777.15 L546.416,777.15 L546.416,791.612 L593.067,791.612 L593.067,751.149 z" fill="#FFFFFF" id="20-Huddle_1603"/>
    <path d="M248.688,493.115 L342.161,493.115 L342.161,657.373 L248.688,657.373 z" fill="#FFFFFF" id="21-Conference_1678"/>
    <path d="M178.367,604.543 L246.057,604.543 L246.057,641.573 L178.367,641.573 z" fill="#FFFFFF" id="22-Huddle_1680"/>
    <path d="M178.483,354.7 L246.951,354.7 L246.951,391.731 L178.483,391.731 z" fill="#FFFFFF" id="23-Huddle_1673"/>
    <path d="M249.774,339.59 L311.469,339.59 L311.469,376.621 L249.774,376.621 z" fill="#FFFFFF" id="24-Huddle_1672"/>
    <path d="M408.103,340.788 L472.759,340.788 L472.759,408.541 L408.103,408.541 z" fill="#FFFFFF" id="25-Huddle_1668"/>
    <path d="M1083.271,868.869 L1116.325,855.302 L1117.519,858.206 L1084.469,871.772 L1106.957,926.27 L1144.011,910.336 L1099.298,800.148 L1061.745,816.173 z" fill="#FFFFFF" id="26-27-ERROR"/>
    <path d="M942.374,864.211 L941.036,865.022 L999.146,1005.61 L1115.461,956.884 L1057.465,817.448 z" fill="#FFFFFF" id="28-Conference_1616"/>
    <path d="M391.75,202.806 L457.68,202.806 L457.68,265.712 L391.75,265.712 z" fill="#FFFFFF" id="29-Huddle_1667"/>
    <path d="M391.664,269.408 L457.766,269.408 L457.766,305.874 L391.664,305.874 z" fill="#FFFFFF" id="30-Huddle_1666"/>
    <path d="M460.879,202.806 L526.808,202.806 L526.808,265.712 L460.879,265.712 z" fill="#FFFFFF" id="31-Huddle_1664"/>
    <path d="M460.792,269.408 L526.894,269.408 L526.894,305.874 L460.792,305.874 z" fill="#FFFFFF" id="32-Huddle_1665"/>
    <path d="M529.963,202.806 L597.768,202.806 L597.768,240.507 L529.963,240.507 z" fill="#FFFFFF" id="33-Huddle_1663"/>
    <path d="M529.912,243.876 L597.82,243.876 L597.82,305.38 L529.912,305.38 z" fill="#FFFFFF" id="34-Huddle-1662"/>
    <path d="M743.449,202.602 L809.997,202.602 L809.997,238.939 L743.449,238.939 z" fill="#FFFFFF" id="35-Huddle_1657"/>
    <path d="M743.253,243.494 L809.358,243.494 L809.358,305.932 L743.253,305.932 z" fill="#FFFFFF" id="36-Huddle_1656"/>
    <path d="M1220.04,202.225 L1286.101,202.225 L1286.101,265.675 L1220.04,265.675 z" fill="#FFFFFF" id="37-Huddle_1647"/>
    <path d="M1219.934,269.175 L1286.207,269.175 L1286.207,305.482 L1219.934,305.482 z" fill="#FFFFFF" id="38-Huddle_1646"/>
    <path d="M1288.499,201.802 L1356.162,201.802 L1356.162,239.578 L1288.499,239.578 z" fill="#FFFFFF" id="39-Huddle_1644"/>
    <path d="M1288.526,242.389 L1356.135,242.389 L1356.135,304.849 L1288.526,304.849 z" fill="#FFFFFF" id="40-Huddle_1645"/>
    <path d="M1359.631,201.802 L1426.618,201.802 L1426.618,266.099 L1359.631,266.099 z" fill="#FFFFFF" id="41-Huddle_1643"/>
    <path d="M1359.767,269.468 L1426.484,269.468 L1426.484,305.189 L1359.767,305.189 z" fill="#FFFFFF" id="42-Huddle_1642"/>
    <path d="M1308.133,528.541 L1308.133,529.921 L1247.475,529.921 L1247.475,598.435 L1313.286,598.435 L1313.286,533.689 L1313.286,529.921 L1313.286,528.541 z" fill="#FFFFFF" id="43-Huddle_1633"/>
    <path d="M1313.286,455.657 L1308.133,455.657 L1308.133,456.84 L1247.475,456.84 L1247.475,526.78 L1308.327,526.78 L1308.327,525.4 L1313.286,525.4 z" fill="#FFFFFF" id="44-Huddle_1635"/>
    <path d="M1313.286,390.172 L1308.133,390.172 L1308.133,391.354 L1247.475,391.354 L1247.475,454.019 L1308.327,454.019 L1308.327,452.639 L1313.286,452.639 z" fill="#FFFFFF" id="45-Huddle_1637"/>
  </g>
</svg>
