<?xml version="1.0" encoding="UTF-8"?>
<!DOCTYPE svg PUBLIC "-//W3C//DTD SVG 1.1//EN" "http://www.w3.org/Graphics/SVG/1.1/DTD/svg11.dtd">
<svg version="1.1" xmlns="http://www.w3.org/2000/svg" xmlns:xlink="http://www.w3.org/1999/xlink" x="0" y="0" width="1200" height="1014" viewBox="0, 0, 1200, 1014">
  <g id="wayfinder" transform="translate(0, 0)">
    <path d="M1178.5,811.169 L1088.336,811.169 L1088.336,718.121 L1178.5,718.121 L1178.5,811.169 z" fill="#D0C7AF" id="1-Project_Management_A"/>
    <path d="M1178.5,905.571 L1088.336,905.571 L1088.336,813.562 L1178.5,813.562 L1178.5,905.571 z" fill="#D0C7AF" id="2-Project_Management_B"/>
    <path d="M1036.616,518.698 L777.108,518.698 L777.108,861.801 L1036.616,861.801 L1036.616,518.698 z" fill="#D0C7AF" id="3-Demo_Room_102"/>
    <path d="M591.548,1001.228 L500.584,1001.228 L500.584,909.484 L591.548,909.484 L591.548,1001.228 z" fill="#D0C7AF" id="4-Sales_Office_1"/>
    <path d="M497.275,1001.228 L405.926,1001.228 L405.926,909.484 L497.275,909.484 L497.275,1001.228 z" fill="#D0C7AF" id="5-Operations"/>
    <path d="M381.746,864.188 L305.801,864.188 L305.801,795.145 L381.746,795.145 L381.746,864.188 z" fill="#D0C7AF" id="6-Ad_Hoc_104"/>
    <path d="M381.516,792.267 L305.8,792.267 L305.8,721.924 L381.516,721.924 L381.516,792.267 z" fill="#D0C7AF" id="7-Ad_Hoc_105"/>
    <path d="M381.516,718.711 L305.571,718.711 L305.571,648.365 L381.516,648.365 L381.516,718.711 z" fill="#D0C7AF" id="8-Ad_Hoc_106"/>
    <path d="M547.957,865.188 L455.997,865.188 L455.997,744.179 L547.957,744.179 L547.957,865.188 z" fill="#D0C7AF" id="9-Tech_Support"/>
    <path d="M1033.432,910.19 L1033.432,915.264 L1030.289,915.264 L1030.289,938.498 L1033.432,938.498 L1033.432,1001.506 L1178.014,1001.506 L1178.014,910.19 L1033.432,910.19 z" fill="#D0C7AF" id="10-Conference_101"/>
    <path d="M453.934,865.449 L385.015,865.449 L385.236,744.338 L454.154,744.338 L453.934,865.449 z" fill="#D0C7AF" id="11-Conference_103"/>
  </g>
</svg>
