<?xml version="1.0" encoding="UTF-8"?>
<!DOCTYPE svg PUBLIC "-//W3C//DTD SVG 1.1//EN" "http://www.w3.org/Graphics/SVG/1.1/DTD/svg11.dtd">
<svg version="1.1" xmlns="http://www.w3.org/2000/svg" xmlns:xlink="http://www.w3.org/1999/xlink" x="0" y="0" width="1550" height="1080" viewBox="0, 0, 1550, 1080">
  <g id="zones" transform="translate(0, 0)">
    <path d="M1244.039,601.768 L1244.039,601.506 L1246.661,601.506 L1246.661,486.03 L1154.454,486.03 L1154.454,589.184 L524.948,589.184 L524.948,590.724 L532.958,590.724 L532.958,792.029 L808.038,792.029 L913.378,1040.058 L1483.314,803.511 L1483.314,601.768 z" fill="#9BDAED" id="Zone_Blue"/>
    <path d="M743.307,118.139 L767.573,118.139 L767.573,199.738 L743.21,199.738 L743.21,337.378 L736.904,337.378 L736.904,409.172 L530.963,409.172 L530.963,589.445 L1156.932,588.923 L1156.932,485.769 L1249.663,485.769 L1249.663,601.506 L1486.055,601.506 L1486.055,568.56 L1512.07,568.56 L1536.446,117.726 z" fill="#E8C4DD" id="Zone_Pink"/>
    <path d="M1017.402,414.224 L1128.112,414.224 L1128.112,588.712 L1017.402,588.712 z" fill="#C0BDBD"/>
    <path d="M407.299,410.405 L344.725,410.405 L344.725,591.118 L407.299,591.118 L407.299,589.053 L476.528,589.053 L476.528,414.224 L407.299,414.224 z" fill="#C0BDBD"/>
    <path d="M681.617,559.175 L707.94,559.175 L707.94,586.919 L681.617,586.919 z" fill="#FFFFFF"/>
    <path d="M778.992,409.613 L778.992,337.687 L736.981,337.687 L736.981,409.613 L698.891,409.613 L698.891,586.919 L740.123,586.919 L740.123,651.803 L769.592,651.803 L769.592,586.919 L835.515,586.919 L835.515,409.613 z" fill="#FFFFFF"/>
    <path d="M744.287,118.139 L601.068,118.139 L601.068,117.728 L532.04,117.728 L532.04,117.726 L26.004,117.726 L26.004,568.56 L67.795,568.56 L67.795,792.029 L522.073,792.029 L532.04,792.029 L533.913,792.029 L536.773,792.029 L543.989,792.029 L543.989,777.001 L536.773,777.001 L536.773,751.149 L542.085,751.149 L542.085,747.055 L536.773,747.055 L536.773,590.724 L532.04,590.724 L532.04,409.172 L737.98,409.172 L737.98,337.378 L744.287,337.378 L744.287,199.738 L768.65,199.738 L768.65,118.139 z" fill="#C9E3B5" id="Zone_Green"/>
    <path d="M526.686,410.405 L622.854,410.405 L622.854,653.587 L526.686,653.587 z" fill="#FFFFFF"/>
  </g>
</svg>
