<?xml version="1.0" encoding="UTF-8"?>
<!DOCTYPE svg PUBLIC "-//W3C//DTD SVG 1.1//EN" "http://www.w3.org/Graphics/SVG/1.1/DTD/svg11.dtd">
<svg version="1.1" xmlns="http://www.w3.org/2000/svg" xmlns:xlink="http://www.w3.org/1999/xlink" x="0" y="0" width="1200" height="1014" viewBox="0, 0, 1200, 1014">
  <g id="zones" transform="translate(0, 0)">
    <path d="M1042.449,719.596 L1042.449,520.516 L784.907,520.516 L784.969,526.338 L537.244,526.338 L537.244,14.896 L143.57,14.896 L143.57,1002.672 L539.729,1002.672 L862.512,1003 L862.512,987.091 L862.537,987.17 L862.537,911.203 L873.107,911.203 L873.107,988.256 L951.9,988.1 L951.9,911.046 L962.347,911.046 L962.347,987.014 L962.424,987.014 L962.424,1002.921 L1184.5,1002.921 L1184.5,719.596 L1042.449,719.596 z" fill="#FFFFFF" id="zone"/>
    <g id="path1562">
      <path d="M126.751,617.387 L12.599,617.387 L12.599,586.524 L126.751,586.524 L126.751,617.387 z" fill="#D3D3D3"/>
      <path d="M126.751,617.387 L12.599,617.387 L12.599,586.524 L126.751,586.524 L126.751,617.387 z" fill-opacity="0" stroke="#000000" stroke-width="1.039" stroke-miterlimit="10"/>
    </g>
    <g id="path990">
      <path d="M127.449,299.21 L12.844,299.21 L12.844,375.573 L127.449,375.573 L127.449,299.21 z" fill="#D3D3D3"/>
      <path d="M127.449,299.21 L12.844,299.21 L12.844,375.573 L127.449,375.573 L127.449,299.21 z" fill-opacity="0" stroke="#000000" stroke-width="1.039" stroke-miterlimit="10"/>
    </g>
    <g id="path992">
      <path d="M67.462,125.892 L14.033,125.892 L14.033,95.147 L67.462,95.147 L67.462,125.892 z" fill="#D3D3D3"/>
      <path d="M67.462,125.892 L14.033,125.892 L14.033,95.147 L67.462,95.147 L67.462,125.892 z" fill-opacity="0" stroke="#000000" stroke-width="1.039" stroke-miterlimit="10"/>
    </g>
  </g>
</svg>
