<?xml version="1.0" encoding="UTF-8"?>
<!DOCTYPE svg PUBLIC "-//W3C//DTD SVG 1.1//EN" "http://www.w3.org/Graphics/SVG/1.1/DTD/svg11.dtd">
<svg version="1.1" xmlns="http://www.w3.org/2000/svg" xmlns:xlink="http://www.w3.org/1999/xlink" x="0" y="0" width="1920" height="1080" viewBox="0, 0, 1920, 1080">
  <g id="workspaces" transform="translate(0, 0)">
    <path d="M943.819,588.855 L981.616,588.855 L981.616,656.247 L943.819,656.247 z" fill="#FFFFFF" id="1-Huddle_16D_46"/>
    <path d="M983.768,588.855 L1021.565,588.855 L1021.565,656.247 L983.768,656.247 z" fill="#FFFFFF" id="2-Huddle_16D_45"/>
    <path d="M1025.312,588.855 L1090.064,588.855 L1090.064,656.247 L1025.312,656.247 z" fill="#FFFFFF" id="3-Huddle_16D_44"/>
    <path d="M1093.811,588.855 L1211.166,588.855 L1211.166,656.247 L1093.811,656.247 z" fill="#FFFFFF" id="4-Conference_16D_43"/>
    <path d="M1156.926,690.91 L1219.581,690.91 L1219.581,754.905 L1156.926,754.905 z" fill="#FFFFFF" id="5-Huddle_16D_42"/>
    <path d="M1115.374,864.211 L1114.036,865.021 L1172.146,1005.61 L1288.461,956.884 L1230.465,817.448 z" fill="#FFFFFF" id="6-Conference_16D_41"/>
    <path d="M1223.667,690.91 L1295.178,690.91 L1295.178,754.905 L1223.667,754.905 z" fill="#FFFFFF" id="7-Huddle_16D_40"/>
    <path d="M1298.757,690.91 L1334.512,690.91 L1334.512,754.905 L1298.757,754.905 z" fill="#FFFFFF" id="8-Huddle_16D_39"/>
    <path d="M1292.682,852.846 L1271.298,800.148 L1233.745,816.173 L1255.094,868.436 z" fill="#FFFFFF" id="9-Huddle_16D_38"/>
    <path d="M1294.188,856.554 L1256.618,872.134 L1278.957,926.27 L1316.011,910.336 z" fill="#FFFFFF" id="10-Huddle_16D_37"/>
    <path d="M1409.901,600.815 L1448.047,600.815 L1448.047,657.043 L1409.901,657.043 z" fill="#FFFFFF" id="11-Huddle_16D_36"/>
    <path d="M1451.28,601.768 L1487.286,601.768 L1487.286,656.247 L1451.28,656.247 z" fill="#FFFFFF" id="12-Huddle_16D_35"/>
    <path d="M1482.133,528.541 L1482.133,529.921 L1421.475,529.921 L1421.475,598.435 L1487.286,598.435 L1487.286,533.689 L1487.286,529.921 L1487.286,528.541 z" fill="#FFFFFF" id="13-Huddle_16C_34"/>
    <path d="M1487.286,455.657 L1482.133,455.657 L1482.133,456.84 L1421.475,456.84 L1421.475,526.78 L1482.327,526.78 L1482.327,525.4 L1487.286,525.4 z" fill="#FFFFFF" id="14-Huddle_16C_33"/>
    <path d="M1487.286,390.172 L1482.133,390.172 L1482.133,391.354 L1421.475,391.354 L1421.475,454.019 L1482.327,454.019 L1482.327,452.639 L1487.286,452.639 z" fill="#FFFFFF" id="15-Huddle_16C_32"/>
    <path d="M1422.084,351.822 L1485.919,351.822 L1485.919,388.329 L1422.084,388.329 z" fill="#FFFFFF" id="16-Huddle_16C_31"/>
    <path d="M1533.631,201.802 L1600.618,201.802 L1600.618,266.099 L1533.631,266.099 z" fill="#FFFFFF" id="17-Huddle_16C_30"/>
    <path d="M1462.499,201.802 L1530.162,201.802 L1530.162,239.578 L1462.499,239.578 z" fill="#FFFFFF" id="18-Huddle_16C_29"/>
    <path d="M1394.04,202.225 L1460.102,202.225 L1460.102,265.675 L1394.04,265.675 z" fill="#FFFFFF" id="19-Huddle_16C_28"/>
    <path d="M1533.767,269.468 L1600.485,269.468 L1600.485,305.189 L1533.767,305.189 z" fill="#FFFFFF" id="20-Huddle_16C_27"/>
    <path d="M1462.526,242.389 L1530.134,242.389 L1530.134,304.849 L1462.526,304.849 z" fill="#FFFFFF" id="21-Huddle_16C_26"/>
    <path d="M1393.934,269.175 L1460.207,269.175 L1460.207,305.482 L1393.934,305.482 z" fill="#FFFFFF" id="22-Huddle_16C_25"/>
    <path d="M1195.193,340.696 L1256.146,340.696 L1256.146,410.329 L1195.193,410.329 z" fill="#FFFFFF" id="23-Huddle_16C_23"/>
    <path d="M1123.612,340.696 L1193.046,340.696 L1193.046,410.329 L1123.612,410.329 z" fill="#FFFFFF" id="24-Huddle_16C_22"/>
    <path d="M917.449,202.602 L983.997,202.602 L983.997,238.939 L917.449,238.939 z" fill="#FFFFFF" id="25-Huddle_16C_21"/>
    <path d="M917.253,243.494 L983.357,243.494 L983.357,305.932 L917.253,305.932 z" fill="#FFFFFF" id="26-Huddle_16C_20"/>
    <path d="M870.88,338.601 L908.362,338.601 L908.362,409.283 L870.88,409.283 z" fill="#FFFFFF" id="27-Huddle_16C_19"/>
    <path d="M703.912,243.876 L771.82,243.876 L771.82,305.38 L703.912,305.38 z" fill="#FFFFFF" id="28-Huddle_16B_18"/>
    <path d="M703.963,202.806 L771.768,202.806 L771.768,240.507 L703.963,240.507 z" fill="#FFFFFF" id="29-Huddle_16B_17"/>
    <path d="M634.879,202.806 L700.808,202.806 L700.808,265.712 L634.879,265.712 z" fill="#FFFFFF" id="30-Huddle_16B_16"/>
    <path d="M565.75,202.806 L631.68,202.806 L631.68,265.712 L565.75,265.712 z" fill="#FFFFFF" id="31-Huddle_16B_15"/>
    <path d="M634.792,269.408 L700.894,269.408 L700.894,305.874 L634.792,305.874 z" fill="#FFFFFF" id="32-Huddle_16B_14"/>
    <path d="M582.104,340.788 L646.759,340.788 L646.759,408.541 L582.104,408.541 z" fill="#FFFFFF" id="33-Huddle_16B_13"/>
    <path d="M565.664,269.408 L631.766,269.408 L631.766,305.874 L565.664,305.874 z" fill="#FFFFFF" id="34-Huddle_16B_12"/>
    <path d="M423.774,339.59 L485.468,339.59 L485.468,376.621 L423.774,376.621 z" fill="#FFFFFF" id="35-Huddle_16B_11"/>
    <path d="M352.483,354.7 L420.951,354.7 L420.951,391.731 L352.483,391.731 z" fill="#FFFFFF" id="36-Huddle_16B_10"/>
    <path d="M353.144,395.127 L420.222,395.127 L420.222,460.27 L353.144,460.27 z" fill="#FFFFFF" id="37-Huddle_16B_09"/>
    <path d="M353.144,463.158 L420.144,463.158 L420.144,526.987 L353.144,526.987 z" fill="#FFFFFF" id="38-Huddle_16B_08"/>
    <path d="M353.144,529.781 L420.058,529.781 L420.058,600.93 L353.144,600.93 z" fill="#FFFFFF" id="39-Huddle_16A_07"/>
    <path d="M352.367,604.543 L420.056,604.543 L420.056,641.573 L352.367,641.573 z" fill="#FFFFFF" id="40-Huddle_16A_06"/>
    <path d="M423.335,493.667 L516.335,493.667 L516.335,656.334 L423.335,656.334 z" fill="#FFFFFF" id="41-Minisphere_16A_05"/>
    <path d="M579.727,590.636 L640.565,590.636 L640.565,656.981 L579.727,656.981 z" fill="#FFFFFF" id="42-Huddle_16A_04"/>
    <path d="M644.433,590.636 L703.427,590.636 L703.427,656.981 L644.433,656.981 z" fill="#FFFFFF" id="43-Huddle_16A_03"/>
    <path d="M709.98,750.148 L709.98,776.149 L720.416,776.149 L720.416,791.861 L767.067,791.861 L767.067,750.148 z" fill="#FFFFFF" id="44-Huddle_16A_02"/>
    <path d="M709.98,692.23 L776.634,692.23 L776.634,746.702 L709.98,746.702 z" fill="#FFFFFF" id="45-Huddle_16A_01"/>
    <path d="M799.533,588.855 L910.276,588.855 L910.276,656.247 L799.533,656.247 z" fill="#FFFFFF" id="00-VCR" display="none"/>
    <path d="M1363.23,350.255 L1363.23,338.833 L1328.763,338.833 L1328.763,350.255 L1327.636,350.255 L1327.636,481.994 L1420.175,481.994 L1420.175,350.255 z" fill="#FFFFFF" id="00-VCR" display="none"/>
  </g>
</svg>
