<?xml version="1.0" encoding="UTF-8"?>
<!DOCTYPE svg PUBLIC "-//W3C//DTD SVG 1.1//EN" "http://www.w3.org/Graphics/SVG/1.1/DTD/svg11.dtd">
<svg version="1.1" xmlns="http://www.w3.org/2000/svg" xmlns:xlink="http://www.w3.org/1999/xlink" x="0" y="0" width="1920" height="1080" viewBox="0, 0, 1920, 1080">
  <g id="zones" transform="translate(0, 0)">
    <path d="M1417.039,601.768 L1417.039,601.506 L1419.661,601.506 L1419.661,486.03 L1327.454,486.03 L1327.454,589.184 L776.208,589.184 L776.208,590.724 L776.208,590.724 L776.208,792.029 L981.038,792.029 L1086.378,1040.058 L1656.314,803.511 L1656.314,601.768 z" fill="#F29D9A"/>
    <path d="M775.987,752.398 L775.987,752.398 L775.987,751.674 L775.987,751.674 L775.987,591.973 L701.395,591.973 L701.395,491.715 L518.964,491.715 L518.964,494.715 L421.469,494.715 L421.469,529.213 L195.359,529.213 L195.359,569.809 L237.15,569.809 L237.15,793.278 L691.428,793.278 L775.987,793.278 L775.987,793.278 L775.987,793.278 L775.987,793.278 L775.987,778.25 L775.987,778.25 z" fill="#9BDAED"/>
    <path d="M776,118.139 L770.423,118.139 L770.423,117.728 L701.395,117.728 L701.395,117.726 L195.359,117.726 L195.359,527.964 L421.469,527.964 L421.469,493.466 L518.964,493.466 L518.964,490.466 L701.395,490.466 L701.395,409.172 L776,409.172 L776,337.378 L776,337.378 L776,199.738 L776,199.738 z" fill="#E8C4DD"/>
    <path d="M775.333,118.139 L775.333,118.139 L775.333,199.738 L775.333,199.738 L775.333,337.378 L775.333,337.378 L775.333,409.172 L703.963,409.172 L703.963,589.445 L1329.932,588.923 L1329.932,485.769 L1422.663,485.769 L1422.663,601.506 L1659.055,601.506 L1659.055,568.56 L1685.07,568.56 L1709.446,117.726 z" fill="#C9E3B5"/>
    <path d="M854.617,559.175 L880.939,559.175 L880.939,586.919 L854.617,586.919 z" fill="#FFFFFF"/>
    <path d="M951.992,409.613 L951.992,337.688 L909.98,337.688 L909.98,409.613 L871.891,409.613 L871.891,586.919 L913.123,586.919 L913.123,651.803 L942.592,651.803 L942.592,586.919 L1008.515,586.919 L1008.515,409.613 z" fill="#FFFFFF"/>
    <path d="M700.686,410.405 L796.104,410.405 L796.104,653.587 L700.686,653.587 z" fill="#FFFFFF"/>
  </g>
</svg>
