<?xml version="1.0" encoding="UTF-8"?>
<!DOCTYPE svg PUBLIC "-//W3C//DTD SVG 1.1//EN" "http://www.w3.org/Graphics/SVG/1.1/DTD/svg11.dtd">
<svg version="1.1" xmlns="http://www.w3.org/2000/svg" xmlns:xlink="http://www.w3.org/1999/xlink" x="0" y="0" width="1920" height="1080" viewBox="0, 0, 1920, 1080">
  <g id="workspaces" transform="translate(0, 0)">
    <path d="M800.515,591.08 L837.202,591.08 L837.202,649.648 L800.515,649.648 z" fill="#FFFFFF" id="1-Huddle_20D_35"/>
    <path d="M839.515,591.08 L876.202,591.08 L876.202,649.648 L839.515,649.648 z" fill="#FFFFFF" id="2-Huddle_20D_34"/>
    <path d="M879.545,591.08 L912,591.08 L912,649.648 L879.545,649.648 z" fill="#FFFFFF" id="3-Huddle_20D_33"/>
    <path d="M944.16,591.08 L1013.339,591.08 L1013.339,649.648 L944.16,649.648 z" fill="#FFFFFF" id="4-Huddle_20D_32"/>
    <path d="M1115.493,591.08 L1184.672,591.08 L1184.672,649.648 L1115.493,649.648 z" fill="#FFFFFF" id="5-Huddle_20D_31"/>
    <path d="M1188.9,591.08 L1258.079,591.08 L1258.079,649.648 L1188.9,649.648 z" fill="#FFFFFF" id="6-Huddle_20D_30"/>
    <path d="M1363.294,616.676 L1484.235,616.676 L1484.235,795.908 L1363.294,795.908 z" fill="#FFFFFF" id="7-Conference_20D_29"/>
    <path d="M1406.322,508.254 L1475.894,508.254 L1475.894,565.336 L1406.322,565.336 z" fill="#FFFFFF" id="8-Huddle_20D_28"/>
    <path d="M1391.564,115.146 L1391.564,129.16 L1386.087,129.16 L1386.087,190.897 L1391.564,190.897 L1391.564,191.231 L1445.848,191.231 L1445.848,115.146 z" fill="#FFFFFF" id="9-Huddle_20C_26"/>
    <path d="M1438.591,342.669 L1475.781,342.669 L1475.781,410.075 L1438.591,410.075 z" fill="#FFFFFF" id="10-Huddle_20C_25"/>
    <path d="M1374.271,342.669 L1435.792,342.669 L1435.792,410.075 L1374.271,410.075 z" fill="#FFFFFF" id="11-Huddle_20C_24"/>
    <path d="M1163.257,342.185 L1224.211,342.185 L1224.211,410.893 L1163.257,410.893 z" fill="#FFFFFF" id="12-Huddle_20C_22"/>
    <path d="M1123.525,342.14 L1160.406,342.14 L1160.406,410.224 L1123.525,410.224 z" fill="#FFFFFF" id="13-Huddle_20C_21"/>
    <path d="M1009.809,342.071 L1071.714,342.071 L1071.714,411.58 L1009.809,411.58 z" fill="#FFFFFF" id="14-Huddle_20C_20"/>
    <path d="M844.254,177.566 L910.915,177.566 L910.915,240.192 L844.254,240.192 z" fill="#FFFFFF" id="15-Huddle_20C_19"/>
    <path d="M774.59,177.566 L840.961,177.566 L840.961,240.514 L774.59,240.514 z" fill="#FFFFFF" id="16-Huddle_20C_18"/>
    <path d="M843.829,243.494 L911.5,243.494 L911.5,307.593 L843.829,307.593 z" fill="#FFFFFF" id="17-Huddle_20C_17"/>
    <path d="M773.573,243.494 L841.244,243.494 L841.244,307.593 L773.573,307.593 z" fill="#FFFFFF" id="18-Huddle_20C_16"/>
    <path d="M705.035,237.392 L771.82,237.392 L771.82,307.209 L705.035,307.209 z" fill="#FFFFFF" id="19-Huddle_20B_15"/>
    <path d="M704.319,197.836 L771.412,197.836 L771.412,234.25 L704.319,234.25 z" fill="#FFFFFF" id="20-Huddle_20B_14"/>
    <path d="M495.412,198.277 L561.788,198.277 L561.788,267.841 L495.412,267.841 z" fill="#FFFFFF" id="21-Huddle_20B_13"/>
    <path d="M426.414,177.267 L491.925,177.267 L491.925,240.688 L426.414,240.688 z" fill="#FFFFFF" id="22-Huddle_20B_12"/>
    <path d="M356.593,176.693 L422.836,176.693 L422.836,241.735 L356.593,241.735 z" fill="#FFFFFF" id="23-Huddle_20B_11"/>
    <path d="M494.456,270.787 L561.789,270.787 L561.789,308.084 L494.456,308.084 z" fill="#FFFFFF" id="24-Huddle_20B_10"/>
    <path d="M426.414,244.311 L491.925,244.311 L491.925,306.942 L426.414,306.942 z" fill="#FFFFFF" id="25-Huddle_20B_09"/>
    <path d="M356.593,244.2 L422.836,244.2 L422.836,306.941 L356.593,306.941 z" fill="#FFFFFF" id="26-Huddle_20B_08"/>
    <path d="M376.408,410.741 L441.62,410.741 L441.62,469.953 L376.408,469.953 z" fill="#FFFFFF" id="27-Huddle_20B_07"/>
    <path d="M376.743,473.949 L441.619,473.949 L441.619,534.741 L376.743,534.741 z" fill="#FFFFFF" id="28-Huddle_20A_06"/>
    <path d="M376.408,538.244 L441.62,538.244 L441.62,574.984 L376.408,574.984 z" fill="#FFFFFF" id="29-Huddle_20A_05"/>
    <path d="M376.743,578.102 L441.619,578.102 L441.619,638.832 L376.743,638.832 z" fill="#FFFFFF" id="30-Huddle_20A_04"/>
    <path d="M626.626,732.646 L626.626,768.47 L614.012,768.47 L614.012,789.449 L626.626,789.449 L627.902,789.449 L689.545,789.449 L689.545,732.646 z" fill="#FFFFFF" id="31-Huddle_20A_03"/>
    <path d="M626.793,693.467 L689.882,693.467 L689.882,729.392 L626.793,729.392 z" fill="#FFFFFF" id="32-Huddle_20A_02"/>
    <path d="M765.029,764.816 L776.635,764.816 L776.635,691.483 L693.91,691.483 L693.91,789.702 L765.029,789.702 z" fill="#FFFFFF" id="33-Meeting_20A_01"/>
    <path d="M1364.023,413.216 L1483.45,413.216 L1483.45,505.112 L1364.023,505.112 z" fill="#FFFFFF" id="00-VCS" display="none"/>
    <path d="M1642.344,115.354 L1627.725,115.354 L1619.328,115.354 L1490.582,115.354 L1490.582,190.714 L1627.725,190.714 L1627.725,159.667 L1642.344,159.667 z" fill="#FFFFFF" id="00-VCR" display="none"/>
  </g>
</svg>
