<?xml version="1.0" encoding="UTF-8"?>
<!DOCTYPE svg PUBLIC "-//W3C//DTD SVG 1.1//EN" "http://www.w3.org/Graphics/SVG/1.1/DTD/svg11.dtd">
<svg version="1.1" xmlns="http://www.w3.org/2000/svg" xmlns:xlink="http://www.w3.org/1999/xlink" x="0" y="0" width="1920" height="1080" viewBox="0, 0, 1920, 1080">
  <g id="zones" transform="translate(0, 0)">
    <path d="M772.984,749.146 L772.984,749.146 L772.984,748.423 L772.984,748.423 L772.984,588.722 L698.392,588.722 L698.392,410.242 L515.961,410.242 L515.961,527.483 L444.829,527.483 L444.829,458.239 L192.356,458.239 L192.356,566.558 L234.147,566.558 L234.147,790.785 L688.425,790.785 L772.984,790.027 L772.984,790.027 L772.984,790.027 L772.984,790.027 L772.984,774.999 L772.984,774.999 z" fill="#9BDAED"/>
    <path d="M772.997,115.136 L767.42,115.136 L767.42,114.725 L698.392,114.725 L698.392,114.723 L192.356,114.723 L192.356,472.311 L443.679,472.311 L443.679,528.632 L515.239,528.632 L515.239,411.168 L698.392,411.168 L772.997,411.168 L772.997,334.375 L772.997,334.375 L772.997,196.735 L772.997,196.735 z" fill="#E8C4DD"/>
    <path d="M1485,454.468 L1688.396,454.468 L1706.443,114.723 L772.331,115.136 L772.331,196.735 L772.331,334.375 L771.581,411.942 L700.21,411.942 L700.96,586.442 L1322.429,585.92 L1322.429,506 L1485,506 z" fill="#C9E3B5"/>
    <path d="M1681.501,568.009 L1688.396,454.447 L1484,454.442 L1484,505.212 L1324.451,505.212 L1324.451,587.182 L773.205,587.182 L773.205,588.722 L773.205,588.722 L773.205,790.027 L978.035,790.027 L1083.7,1039.355 L1656.537,802.809 L1656.212,568.009 z" fill="#F29D9A"/>
    <path d="M954.5,409.278 L954.5,338.055 L903.367,338.055 L903.367,409.278 L852.256,409.278 L852.256,588.936 L913.511,588.936 L913.511,645.044 L942.096,645.044 L942.096,587.203 L1001.88,587.203 L1001.88,409.278 z" fill="#FFFFFF"/>
    <path d="M706.477,410.485 L706.477,430.233 L700.856,430.233 L700.856,577.11 L706.477,577.11 L706.477,645.678 L797.9,645.678 L797.9,410.485 z" fill="#FFFFFF"/>
    <path d="M981.093,796.985 L1085.027,1038.607 L1655.09,802.009 L1654.328,796.998 z" fill="#C0BDBD"/>
  </g>
</svg>
